G04 #@! TF.FileFunction,Legend,Top*
%FSLAX46Y46*%
G04 Gerber Fmt 4.6, Leading zero omitted, Abs format (unit mm)*
G04 Created by KiCad (PCBNEW 4.0.7) date 12/16/19 01:30:10*
%MOMM*%
%LPD*%
G01*
G04 APERTURE LIST*
%ADD10C,0.100000*%
%ADD11C,0.300000*%
%ADD12C,0.127000*%
%ADD13C,0.120000*%
%ADD14C,0.025000*%
%ADD15C,0.150000*%
%ADD16C,0.050000*%
%ADD17C,0.062500*%
%ADD18C,0.112500*%
G04 APERTURE END LIST*
D10*
D11*
X140614286Y-134932143D02*
X140828572Y-135003571D01*
X141185715Y-135003571D01*
X141328572Y-134932143D01*
X141400001Y-134860714D01*
X141471429Y-134717857D01*
X141471429Y-134575000D01*
X141400001Y-134432143D01*
X141328572Y-134360714D01*
X141185715Y-134289286D01*
X140900001Y-134217857D01*
X140757143Y-134146429D01*
X140685715Y-134075000D01*
X140614286Y-133932143D01*
X140614286Y-133789286D01*
X140685715Y-133646429D01*
X140757143Y-133575000D01*
X140900001Y-133503571D01*
X141257143Y-133503571D01*
X141471429Y-133575000D01*
X141971429Y-133503571D02*
X142328572Y-135003571D01*
X142614286Y-133932143D01*
X142900000Y-135003571D01*
X143257143Y-133503571D01*
X143828572Y-135003571D02*
X143828572Y-133503571D01*
X144185715Y-133503571D01*
X144400000Y-133575000D01*
X144542858Y-133717857D01*
X144614286Y-133860714D01*
X144685715Y-134146429D01*
X144685715Y-134360714D01*
X144614286Y-134646429D01*
X144542858Y-134789286D01*
X144400000Y-134932143D01*
X144185715Y-135003571D01*
X143828572Y-135003571D01*
D12*
X117500000Y-127925000D02*
X117500000Y-128225000D01*
X116600000Y-127925000D02*
X116600000Y-128225000D01*
X119405000Y-129350000D02*
X119405000Y-128350000D01*
X118445000Y-128350000D02*
X118445000Y-129350000D01*
X140155000Y-119700000D02*
X140155000Y-118700000D01*
X139195000Y-118700000D02*
X139195000Y-119700000D01*
X126275000Y-130300000D02*
X126275000Y-130600000D01*
X125375000Y-130300000D02*
X125375000Y-130600000D01*
X141800000Y-119875000D02*
X141800000Y-120175000D01*
X140900000Y-119875000D02*
X140900000Y-120175000D01*
X128600000Y-128025000D02*
X128600000Y-128325000D01*
X127700000Y-128025000D02*
X127700000Y-128325000D01*
X130505000Y-129500000D02*
X130505000Y-128500000D01*
X129545000Y-128500000D02*
X129545000Y-129500000D01*
X128020000Y-113150000D02*
X128020000Y-114150000D01*
X128980000Y-114150000D02*
X128980000Y-113150000D01*
X145575000Y-113220000D02*
X144575000Y-113220000D01*
X144575000Y-114180000D02*
X145575000Y-114180000D01*
X145570000Y-111825000D02*
X144570000Y-111825000D01*
X144570000Y-112785000D02*
X145570000Y-112785000D01*
X146300000Y-108425000D02*
X146600000Y-108425000D01*
X146300000Y-109325000D02*
X146600000Y-109325000D01*
X146150000Y-106795000D02*
X145150000Y-106795000D01*
X145150000Y-107755000D02*
X146150000Y-107755000D01*
X134200000Y-102000000D02*
X134200000Y-101700000D01*
X135100000Y-102000000D02*
X135100000Y-101700000D01*
X132145000Y-102175000D02*
X132145000Y-103175000D01*
X133105000Y-103175000D02*
X133105000Y-102175000D01*
X151575000Y-104820000D02*
X151575000Y-105820000D01*
X152535000Y-105820000D02*
X152535000Y-104820000D01*
X150920000Y-110880000D02*
X151920000Y-110880000D01*
X151920000Y-109920000D02*
X150920000Y-109920000D01*
X154145000Y-105470000D02*
X154145000Y-105170000D01*
X155045000Y-105470000D02*
X155045000Y-105170000D01*
X151900000Y-108360000D02*
X151900000Y-107360000D01*
X150940000Y-107360000D02*
X150940000Y-108360000D01*
X152130000Y-119800000D02*
X152130000Y-118800000D01*
X151170000Y-118800000D02*
X151170000Y-119800000D01*
X157955000Y-106740000D02*
X157955000Y-106440000D01*
X158855000Y-106740000D02*
X158855000Y-106440000D01*
X131500000Y-125450000D02*
X131500000Y-125150000D01*
X132400000Y-125450000D02*
X132400000Y-125150000D01*
X136075000Y-125450000D02*
X136075000Y-125150000D01*
X136975000Y-125450000D02*
X136975000Y-125150000D01*
D13*
X116175000Y-106220000D02*
X116175000Y-108880000D01*
X121315000Y-106220000D02*
X116175000Y-106220000D01*
X121315000Y-108880000D02*
X116175000Y-108880000D01*
X121315000Y-106220000D02*
X121315000Y-108880000D01*
X122585000Y-106220000D02*
X123915000Y-106220000D01*
X123915000Y-106220000D02*
X123915000Y-107550000D01*
X116175000Y-110030000D02*
X116175000Y-112690000D01*
X121315000Y-110030000D02*
X116175000Y-110030000D01*
X121315000Y-112690000D02*
X116175000Y-112690000D01*
X121315000Y-110030000D02*
X121315000Y-112690000D01*
X122585000Y-110030000D02*
X123915000Y-110030000D01*
X123915000Y-110030000D02*
X123915000Y-111360000D01*
X116175000Y-113840000D02*
X116175000Y-116500000D01*
X121315000Y-113840000D02*
X116175000Y-113840000D01*
X121315000Y-116500000D02*
X116175000Y-116500000D01*
X121315000Y-113840000D02*
X121315000Y-116500000D01*
X122585000Y-113840000D02*
X123915000Y-113840000D01*
X123915000Y-113840000D02*
X123915000Y-115170000D01*
X116175000Y-117650000D02*
X116175000Y-120310000D01*
X121315000Y-117650000D02*
X116175000Y-117650000D01*
X121315000Y-120310000D02*
X116175000Y-120310000D01*
X121315000Y-117650000D02*
X121315000Y-120310000D01*
X122585000Y-117650000D02*
X123915000Y-117650000D01*
X123915000Y-117650000D02*
X123915000Y-118980000D01*
X134850000Y-95100000D02*
X134850000Y-97760000D01*
X139990000Y-95100000D02*
X134850000Y-95100000D01*
X139990000Y-97760000D02*
X134850000Y-97760000D01*
X139990000Y-95100000D02*
X139990000Y-97760000D01*
X141260000Y-95100000D02*
X142590000Y-95100000D01*
X142590000Y-95100000D02*
X142590000Y-96430000D01*
X127075000Y-136040000D02*
X127075000Y-138700000D01*
X132215000Y-136040000D02*
X127075000Y-136040000D01*
X132215000Y-138700000D02*
X127075000Y-138700000D01*
X132215000Y-136040000D02*
X132215000Y-138700000D01*
X133485000Y-136040000D02*
X134815000Y-136040000D01*
X134815000Y-136040000D02*
X134815000Y-137370000D01*
D14*
X121216421Y-126275000D02*
G75*
G03X121216421Y-126275000I-141421J0D01*
G01*
D15*
X131739264Y-116535000D02*
G75*
G03X131739264Y-116535000I-424264J0D01*
G01*
D16*
X153371421Y-107330000D02*
G75*
G03X153371421Y-107330000I-141421J0D01*
G01*
D12*
X137275000Y-122945000D02*
X131275000Y-122945000D01*
X137275000Y-119445000D02*
X131275000Y-119445000D01*
D13*
X136060000Y-135995000D02*
X136060000Y-138655000D01*
X146280000Y-135995000D02*
X136060000Y-135995000D01*
X146280000Y-138655000D02*
X136060000Y-138655000D01*
X146280000Y-135995000D02*
X146280000Y-138655000D01*
X147550000Y-135995000D02*
X148880000Y-135995000D01*
X148880000Y-135995000D02*
X148880000Y-137325000D01*
D15*
X123026667Y-134102381D02*
X122693333Y-133626190D01*
X122455238Y-134102381D02*
X122455238Y-133102381D01*
X122836191Y-133102381D01*
X122931429Y-133150000D01*
X122979048Y-133197619D01*
X123026667Y-133292857D01*
X123026667Y-133435714D01*
X122979048Y-133530952D01*
X122931429Y-133578571D01*
X122836191Y-133626190D01*
X122455238Y-133626190D01*
X123455238Y-133578571D02*
X123788572Y-133578571D01*
X123931429Y-134102381D02*
X123455238Y-134102381D01*
X123455238Y-133102381D01*
X123931429Y-133102381D01*
X124693334Y-133578571D02*
X124360000Y-133578571D01*
X124360000Y-134102381D02*
X124360000Y-133102381D01*
X124836191Y-133102381D01*
X125360000Y-133102381D02*
X125360000Y-133340476D01*
X125121905Y-133245238D02*
X125360000Y-133340476D01*
X125598096Y-133245238D01*
X125217143Y-133530952D02*
X125360000Y-133340476D01*
X125502858Y-133530952D01*
X126121905Y-133102381D02*
X126121905Y-133340476D01*
X125883810Y-133245238D02*
X126121905Y-133340476D01*
X126360001Y-133245238D01*
X125979048Y-133530952D02*
X126121905Y-133340476D01*
X126264763Y-133530952D01*
X155406667Y-131632381D02*
X155073333Y-131156190D01*
X154835238Y-131632381D02*
X154835238Y-130632381D01*
X155216191Y-130632381D01*
X155311429Y-130680000D01*
X155359048Y-130727619D01*
X155406667Y-130822857D01*
X155406667Y-130965714D01*
X155359048Y-131060952D01*
X155311429Y-131108571D01*
X155216191Y-131156190D01*
X154835238Y-131156190D01*
X155835238Y-131108571D02*
X156168572Y-131108571D01*
X156311429Y-131632381D02*
X155835238Y-131632381D01*
X155835238Y-130632381D01*
X156311429Y-130632381D01*
X157073334Y-131108571D02*
X156740000Y-131108571D01*
X156740000Y-131632381D02*
X156740000Y-130632381D01*
X157216191Y-130632381D01*
X157740000Y-130632381D02*
X157740000Y-130870476D01*
X157501905Y-130775238D02*
X157740000Y-130870476D01*
X157978096Y-130775238D01*
X157597143Y-131060952D02*
X157740000Y-130870476D01*
X157882858Y-131060952D01*
X158501905Y-130632381D02*
X158501905Y-130870476D01*
X158263810Y-130775238D02*
X158501905Y-130870476D01*
X158740001Y-130775238D01*
X158359048Y-131060952D02*
X158501905Y-130870476D01*
X158644763Y-131060952D01*
X150616667Y-95732381D02*
X150283333Y-95256190D01*
X150045238Y-95732381D02*
X150045238Y-94732381D01*
X150426191Y-94732381D01*
X150521429Y-94780000D01*
X150569048Y-94827619D01*
X150616667Y-94922857D01*
X150616667Y-95065714D01*
X150569048Y-95160952D01*
X150521429Y-95208571D01*
X150426191Y-95256190D01*
X150045238Y-95256190D01*
X151045238Y-95208571D02*
X151378572Y-95208571D01*
X151521429Y-95732381D02*
X151045238Y-95732381D01*
X151045238Y-94732381D01*
X151521429Y-94732381D01*
X152283334Y-95208571D02*
X151950000Y-95208571D01*
X151950000Y-95732381D02*
X151950000Y-94732381D01*
X152426191Y-94732381D01*
X152950000Y-94732381D02*
X152950000Y-94970476D01*
X152711905Y-94875238D02*
X152950000Y-94970476D01*
X153188096Y-94875238D01*
X152807143Y-95160952D02*
X152950000Y-94970476D01*
X153092858Y-95160952D01*
X153711905Y-94732381D02*
X153711905Y-94970476D01*
X153473810Y-94875238D02*
X153711905Y-94970476D01*
X153950001Y-94875238D01*
X153569048Y-95160952D02*
X153711905Y-94970476D01*
X153854763Y-95160952D01*
D16*
X117004829Y-126186081D02*
X116993351Y-126197559D01*
X116958918Y-126209036D01*
X116935963Y-126209036D01*
X116901531Y-126197559D01*
X116878575Y-126174604D01*
X116867098Y-126151649D01*
X116855620Y-126105738D01*
X116855620Y-126071306D01*
X116867098Y-126025395D01*
X116878575Y-126002440D01*
X116901531Y-125979485D01*
X116935963Y-125968007D01*
X116958918Y-125968007D01*
X116993351Y-125979485D01*
X117004829Y-125990963D01*
X117234380Y-126209036D02*
X117096649Y-126209036D01*
X117165515Y-126209036D02*
X117165515Y-125968007D01*
X117142560Y-126002440D01*
X117119604Y-126025395D01*
X117096649Y-126036873D01*
X118909829Y-127891081D02*
X118898351Y-127902559D01*
X118863918Y-127914036D01*
X118840963Y-127914036D01*
X118806531Y-127902559D01*
X118783575Y-127879604D01*
X118772098Y-127856649D01*
X118760620Y-127810738D01*
X118760620Y-127776306D01*
X118772098Y-127730395D01*
X118783575Y-127707440D01*
X118806531Y-127684485D01*
X118840963Y-127673007D01*
X118863918Y-127673007D01*
X118898351Y-127684485D01*
X118909829Y-127695963D01*
X119001649Y-127695963D02*
X119013127Y-127684485D01*
X119036082Y-127673007D01*
X119093470Y-127673007D01*
X119116425Y-127684485D01*
X119127903Y-127695963D01*
X119139380Y-127718918D01*
X119139380Y-127741873D01*
X119127903Y-127776306D01*
X118990172Y-127914036D01*
X119139380Y-127914036D01*
X139634829Y-118261081D02*
X139623351Y-118272559D01*
X139588918Y-118284036D01*
X139565963Y-118284036D01*
X139531531Y-118272559D01*
X139508575Y-118249604D01*
X139497098Y-118226649D01*
X139485620Y-118180738D01*
X139485620Y-118146306D01*
X139497098Y-118100395D01*
X139508575Y-118077440D01*
X139531531Y-118054485D01*
X139565963Y-118043007D01*
X139588918Y-118043007D01*
X139623351Y-118054485D01*
X139634829Y-118065963D01*
X139715172Y-118043007D02*
X139864380Y-118043007D01*
X139784037Y-118134828D01*
X139818470Y-118134828D01*
X139841425Y-118146306D01*
X139852903Y-118157783D01*
X139864380Y-118180738D01*
X139864380Y-118238126D01*
X139852903Y-118261081D01*
X139841425Y-118272559D01*
X139818470Y-118284036D01*
X139749604Y-118284036D01*
X139726649Y-118272559D01*
X139715172Y-118261081D01*
X125809829Y-128611081D02*
X125798351Y-128622559D01*
X125763918Y-128634036D01*
X125740963Y-128634036D01*
X125706531Y-128622559D01*
X125683575Y-128599604D01*
X125672098Y-128576649D01*
X125660620Y-128530738D01*
X125660620Y-128496306D01*
X125672098Y-128450395D01*
X125683575Y-128427440D01*
X125706531Y-128404485D01*
X125740963Y-128393007D01*
X125763918Y-128393007D01*
X125798351Y-128404485D01*
X125809829Y-128415963D01*
X126016425Y-128473350D02*
X126016425Y-128634036D01*
X125959037Y-128381530D02*
X125901649Y-128553693D01*
X126050858Y-128553693D01*
X141334829Y-118261081D02*
X141323351Y-118272559D01*
X141288918Y-118284036D01*
X141265963Y-118284036D01*
X141231531Y-118272559D01*
X141208575Y-118249604D01*
X141197098Y-118226649D01*
X141185620Y-118180738D01*
X141185620Y-118146306D01*
X141197098Y-118100395D01*
X141208575Y-118077440D01*
X141231531Y-118054485D01*
X141265963Y-118043007D01*
X141288918Y-118043007D01*
X141323351Y-118054485D01*
X141334829Y-118065963D01*
X141552903Y-118043007D02*
X141438127Y-118043007D01*
X141426649Y-118157783D01*
X141438127Y-118146306D01*
X141461082Y-118134828D01*
X141518470Y-118134828D01*
X141541425Y-118146306D01*
X141552903Y-118157783D01*
X141564380Y-118180738D01*
X141564380Y-118238126D01*
X141552903Y-118261081D01*
X141541425Y-118272559D01*
X141518470Y-118284036D01*
X141461082Y-118284036D01*
X141438127Y-118272559D01*
X141426649Y-118261081D01*
X128109829Y-126336081D02*
X128098351Y-126347559D01*
X128063918Y-126359036D01*
X128040963Y-126359036D01*
X128006531Y-126347559D01*
X127983575Y-126324604D01*
X127972098Y-126301649D01*
X127960620Y-126255738D01*
X127960620Y-126221306D01*
X127972098Y-126175395D01*
X127983575Y-126152440D01*
X128006531Y-126129485D01*
X128040963Y-126118007D01*
X128063918Y-126118007D01*
X128098351Y-126129485D01*
X128109829Y-126140963D01*
X128316425Y-126118007D02*
X128270515Y-126118007D01*
X128247560Y-126129485D01*
X128236082Y-126140963D01*
X128213127Y-126175395D01*
X128201649Y-126221306D01*
X128201649Y-126313126D01*
X128213127Y-126336081D01*
X128224604Y-126347559D01*
X128247560Y-126359036D01*
X128293470Y-126359036D01*
X128316425Y-126347559D01*
X128327903Y-126336081D01*
X128339380Y-126313126D01*
X128339380Y-126255738D01*
X128327903Y-126232783D01*
X128316425Y-126221306D01*
X128293470Y-126209828D01*
X128247560Y-126209828D01*
X128224604Y-126221306D01*
X128213127Y-126232783D01*
X128201649Y-126255738D01*
X130009829Y-127986081D02*
X129998351Y-127997559D01*
X129963918Y-128009036D01*
X129940963Y-128009036D01*
X129906531Y-127997559D01*
X129883575Y-127974604D01*
X129872098Y-127951649D01*
X129860620Y-127905738D01*
X129860620Y-127871306D01*
X129872098Y-127825395D01*
X129883575Y-127802440D01*
X129906531Y-127779485D01*
X129940963Y-127768007D01*
X129963918Y-127768007D01*
X129998351Y-127779485D01*
X130009829Y-127790963D01*
X130090172Y-127768007D02*
X130250858Y-127768007D01*
X130147560Y-128009036D01*
X128459829Y-112686081D02*
X128448351Y-112697559D01*
X128413918Y-112709036D01*
X128390963Y-112709036D01*
X128356531Y-112697559D01*
X128333575Y-112674604D01*
X128322098Y-112651649D01*
X128310620Y-112605738D01*
X128310620Y-112571306D01*
X128322098Y-112525395D01*
X128333575Y-112502440D01*
X128356531Y-112479485D01*
X128390963Y-112468007D01*
X128413918Y-112468007D01*
X128448351Y-112479485D01*
X128459829Y-112490963D01*
X128597560Y-112571306D02*
X128574604Y-112559828D01*
X128563127Y-112548350D01*
X128551649Y-112525395D01*
X128551649Y-112513918D01*
X128563127Y-112490963D01*
X128574604Y-112479485D01*
X128597560Y-112468007D01*
X128643470Y-112468007D01*
X128666425Y-112479485D01*
X128677903Y-112490963D01*
X128689380Y-112513918D01*
X128689380Y-112525395D01*
X128677903Y-112548350D01*
X128666425Y-112559828D01*
X128643470Y-112571306D01*
X128597560Y-112571306D01*
X128574604Y-112582783D01*
X128563127Y-112594261D01*
X128551649Y-112617216D01*
X128551649Y-112663126D01*
X128563127Y-112686081D01*
X128574604Y-112697559D01*
X128597560Y-112709036D01*
X128643470Y-112709036D01*
X128666425Y-112697559D01*
X128677903Y-112686081D01*
X128689380Y-112663126D01*
X128689380Y-112617216D01*
X128677903Y-112594261D01*
X128666425Y-112582783D01*
X128643470Y-112571306D01*
X145014829Y-114561081D02*
X145003351Y-114572559D01*
X144968918Y-114584036D01*
X144945963Y-114584036D01*
X144911531Y-114572559D01*
X144888575Y-114549604D01*
X144877098Y-114526649D01*
X144865620Y-114480738D01*
X144865620Y-114446306D01*
X144877098Y-114400395D01*
X144888575Y-114377440D01*
X144911531Y-114354485D01*
X144945963Y-114343007D01*
X144968918Y-114343007D01*
X145003351Y-114354485D01*
X145014829Y-114365963D01*
X145129604Y-114584036D02*
X145175515Y-114584036D01*
X145198470Y-114572559D01*
X145209947Y-114561081D01*
X145232903Y-114526649D01*
X145244380Y-114480738D01*
X145244380Y-114388918D01*
X145232903Y-114365963D01*
X145221425Y-114354485D01*
X145198470Y-114343007D01*
X145152560Y-114343007D01*
X145129604Y-114354485D01*
X145118127Y-114365963D01*
X145106649Y-114388918D01*
X145106649Y-114446306D01*
X145118127Y-114469261D01*
X145129604Y-114480738D01*
X145152560Y-114492216D01*
X145198470Y-114492216D01*
X145221425Y-114480738D01*
X145232903Y-114469261D01*
X145244380Y-114446306D01*
X144895054Y-111636081D02*
X144883576Y-111647559D01*
X144849143Y-111659036D01*
X144826188Y-111659036D01*
X144791756Y-111647559D01*
X144768800Y-111624604D01*
X144757323Y-111601649D01*
X144745845Y-111555738D01*
X144745845Y-111521306D01*
X144757323Y-111475395D01*
X144768800Y-111452440D01*
X144791756Y-111429485D01*
X144826188Y-111418007D01*
X144849143Y-111418007D01*
X144883576Y-111429485D01*
X144895054Y-111440963D01*
X145124605Y-111659036D02*
X144986874Y-111659036D01*
X145055740Y-111659036D02*
X145055740Y-111418007D01*
X145032785Y-111452440D01*
X145009829Y-111475395D01*
X144986874Y-111486873D01*
X145273813Y-111418007D02*
X145296768Y-111418007D01*
X145319723Y-111429485D01*
X145331201Y-111440963D01*
X145342679Y-111463918D01*
X145354156Y-111509828D01*
X145354156Y-111567216D01*
X145342679Y-111613126D01*
X145331201Y-111636081D01*
X145319723Y-111647559D01*
X145296768Y-111659036D01*
X145273813Y-111659036D01*
X145250858Y-111647559D01*
X145239380Y-111636081D01*
X145227903Y-111613126D01*
X145216425Y-111567216D01*
X145216425Y-111509828D01*
X145227903Y-111463918D01*
X145239380Y-111440963D01*
X145250858Y-111429485D01*
X145273813Y-111418007D01*
X144995054Y-110036081D02*
X144983576Y-110047559D01*
X144949143Y-110059036D01*
X144926188Y-110059036D01*
X144891756Y-110047559D01*
X144868800Y-110024604D01*
X144857323Y-110001649D01*
X144845845Y-109955738D01*
X144845845Y-109921306D01*
X144857323Y-109875395D01*
X144868800Y-109852440D01*
X144891756Y-109829485D01*
X144926188Y-109818007D01*
X144949143Y-109818007D01*
X144983576Y-109829485D01*
X144995054Y-109840963D01*
X145224605Y-110059036D02*
X145086874Y-110059036D01*
X145155740Y-110059036D02*
X145155740Y-109818007D01*
X145132785Y-109852440D01*
X145109829Y-109875395D01*
X145086874Y-109886873D01*
X145454156Y-110059036D02*
X145316425Y-110059036D01*
X145385291Y-110059036D02*
X145385291Y-109818007D01*
X145362336Y-109852440D01*
X145339380Y-109875395D01*
X145316425Y-109886873D01*
X144920054Y-106586081D02*
X144908576Y-106597559D01*
X144874143Y-106609036D01*
X144851188Y-106609036D01*
X144816756Y-106597559D01*
X144793800Y-106574604D01*
X144782323Y-106551649D01*
X144770845Y-106505738D01*
X144770845Y-106471306D01*
X144782323Y-106425395D01*
X144793800Y-106402440D01*
X144816756Y-106379485D01*
X144851188Y-106368007D01*
X144874143Y-106368007D01*
X144908576Y-106379485D01*
X144920054Y-106390963D01*
X145149605Y-106609036D02*
X145011874Y-106609036D01*
X145080740Y-106609036D02*
X145080740Y-106368007D01*
X145057785Y-106402440D01*
X145034829Y-106425395D01*
X145011874Y-106436873D01*
X145241425Y-106390963D02*
X145252903Y-106379485D01*
X145275858Y-106368007D01*
X145333246Y-106368007D01*
X145356201Y-106379485D01*
X145367679Y-106390963D01*
X145379156Y-106413918D01*
X145379156Y-106436873D01*
X145367679Y-106471306D01*
X145229948Y-106609036D01*
X145379156Y-106609036D01*
X134520054Y-100041081D02*
X134508576Y-100052559D01*
X134474143Y-100064036D01*
X134451188Y-100064036D01*
X134416756Y-100052559D01*
X134393800Y-100029604D01*
X134382323Y-100006649D01*
X134370845Y-99960738D01*
X134370845Y-99926306D01*
X134382323Y-99880395D01*
X134393800Y-99857440D01*
X134416756Y-99834485D01*
X134451188Y-99823007D01*
X134474143Y-99823007D01*
X134508576Y-99834485D01*
X134520054Y-99845963D01*
X134749605Y-100064036D02*
X134611874Y-100064036D01*
X134680740Y-100064036D02*
X134680740Y-99823007D01*
X134657785Y-99857440D01*
X134634829Y-99880395D01*
X134611874Y-99891873D01*
X134829948Y-99823007D02*
X134979156Y-99823007D01*
X134898813Y-99914828D01*
X134933246Y-99914828D01*
X134956201Y-99926306D01*
X134967679Y-99937783D01*
X134979156Y-99960738D01*
X134979156Y-100018126D01*
X134967679Y-100041081D01*
X134956201Y-100052559D01*
X134933246Y-100064036D01*
X134864380Y-100064036D01*
X134841425Y-100052559D01*
X134829948Y-100041081D01*
X132470054Y-101491081D02*
X132458576Y-101502559D01*
X132424143Y-101514036D01*
X132401188Y-101514036D01*
X132366756Y-101502559D01*
X132343800Y-101479604D01*
X132332323Y-101456649D01*
X132320845Y-101410738D01*
X132320845Y-101376306D01*
X132332323Y-101330395D01*
X132343800Y-101307440D01*
X132366756Y-101284485D01*
X132401188Y-101273007D01*
X132424143Y-101273007D01*
X132458576Y-101284485D01*
X132470054Y-101295963D01*
X132699605Y-101514036D02*
X132561874Y-101514036D01*
X132630740Y-101514036D02*
X132630740Y-101273007D01*
X132607785Y-101307440D01*
X132584829Y-101330395D01*
X132561874Y-101341873D01*
X132906201Y-101353350D02*
X132906201Y-101514036D01*
X132848813Y-101261530D02*
X132791425Y-101433693D01*
X132940634Y-101433693D01*
X151895054Y-104336081D02*
X151883576Y-104347559D01*
X151849143Y-104359036D01*
X151826188Y-104359036D01*
X151791756Y-104347559D01*
X151768800Y-104324604D01*
X151757323Y-104301649D01*
X151745845Y-104255738D01*
X151745845Y-104221306D01*
X151757323Y-104175395D01*
X151768800Y-104152440D01*
X151791756Y-104129485D01*
X151826188Y-104118007D01*
X151849143Y-104118007D01*
X151883576Y-104129485D01*
X151895054Y-104140963D01*
X152124605Y-104359036D02*
X151986874Y-104359036D01*
X152055740Y-104359036D02*
X152055740Y-104118007D01*
X152032785Y-104152440D01*
X152009829Y-104175395D01*
X151986874Y-104186873D01*
X152342679Y-104118007D02*
X152227903Y-104118007D01*
X152216425Y-104232783D01*
X152227903Y-104221306D01*
X152250858Y-104209828D01*
X152308246Y-104209828D01*
X152331201Y-104221306D01*
X152342679Y-104232783D01*
X152354156Y-104255738D01*
X152354156Y-104313126D01*
X152342679Y-104336081D01*
X152331201Y-104347559D01*
X152308246Y-104359036D01*
X152250858Y-104359036D01*
X152227903Y-104347559D01*
X152216425Y-104336081D01*
X151245054Y-109736081D02*
X151233576Y-109747559D01*
X151199143Y-109759036D01*
X151176188Y-109759036D01*
X151141756Y-109747559D01*
X151118800Y-109724604D01*
X151107323Y-109701649D01*
X151095845Y-109655738D01*
X151095845Y-109621306D01*
X151107323Y-109575395D01*
X151118800Y-109552440D01*
X151141756Y-109529485D01*
X151176188Y-109518007D01*
X151199143Y-109518007D01*
X151233576Y-109529485D01*
X151245054Y-109540963D01*
X151474605Y-109759036D02*
X151336874Y-109759036D01*
X151405740Y-109759036D02*
X151405740Y-109518007D01*
X151382785Y-109552440D01*
X151359829Y-109575395D01*
X151336874Y-109586873D01*
X151681201Y-109518007D02*
X151635291Y-109518007D01*
X151612336Y-109529485D01*
X151600858Y-109540963D01*
X151577903Y-109575395D01*
X151566425Y-109621306D01*
X151566425Y-109713126D01*
X151577903Y-109736081D01*
X151589380Y-109747559D01*
X151612336Y-109759036D01*
X151658246Y-109759036D01*
X151681201Y-109747559D01*
X151692679Y-109736081D01*
X151704156Y-109713126D01*
X151704156Y-109655738D01*
X151692679Y-109632783D01*
X151681201Y-109621306D01*
X151658246Y-109609828D01*
X151612336Y-109609828D01*
X151589380Y-109621306D01*
X151577903Y-109632783D01*
X151566425Y-109655738D01*
X154445054Y-103436081D02*
X154433576Y-103447559D01*
X154399143Y-103459036D01*
X154376188Y-103459036D01*
X154341756Y-103447559D01*
X154318800Y-103424604D01*
X154307323Y-103401649D01*
X154295845Y-103355738D01*
X154295845Y-103321306D01*
X154307323Y-103275395D01*
X154318800Y-103252440D01*
X154341756Y-103229485D01*
X154376188Y-103218007D01*
X154399143Y-103218007D01*
X154433576Y-103229485D01*
X154445054Y-103240963D01*
X154674605Y-103459036D02*
X154536874Y-103459036D01*
X154605740Y-103459036D02*
X154605740Y-103218007D01*
X154582785Y-103252440D01*
X154559829Y-103275395D01*
X154536874Y-103286873D01*
X154754948Y-103218007D02*
X154915634Y-103218007D01*
X154812336Y-103459036D01*
X150745054Y-106886081D02*
X150733576Y-106897559D01*
X150699143Y-106909036D01*
X150676188Y-106909036D01*
X150641756Y-106897559D01*
X150618800Y-106874604D01*
X150607323Y-106851649D01*
X150595845Y-106805738D01*
X150595845Y-106771306D01*
X150607323Y-106725395D01*
X150618800Y-106702440D01*
X150641756Y-106679485D01*
X150676188Y-106668007D01*
X150699143Y-106668007D01*
X150733576Y-106679485D01*
X150745054Y-106690963D01*
X150974605Y-106909036D02*
X150836874Y-106909036D01*
X150905740Y-106909036D02*
X150905740Y-106668007D01*
X150882785Y-106702440D01*
X150859829Y-106725395D01*
X150836874Y-106736873D01*
X151112336Y-106771306D02*
X151089380Y-106759828D01*
X151077903Y-106748350D01*
X151066425Y-106725395D01*
X151066425Y-106713918D01*
X151077903Y-106690963D01*
X151089380Y-106679485D01*
X151112336Y-106668007D01*
X151158246Y-106668007D01*
X151181201Y-106679485D01*
X151192679Y-106690963D01*
X151204156Y-106713918D01*
X151204156Y-106725395D01*
X151192679Y-106748350D01*
X151181201Y-106759828D01*
X151158246Y-106771306D01*
X151112336Y-106771306D01*
X151089380Y-106782783D01*
X151077903Y-106794261D01*
X151066425Y-106817216D01*
X151066425Y-106863126D01*
X151077903Y-106886081D01*
X151089380Y-106897559D01*
X151112336Y-106909036D01*
X151158246Y-106909036D01*
X151181201Y-106897559D01*
X151192679Y-106886081D01*
X151204156Y-106863126D01*
X151204156Y-106817216D01*
X151192679Y-106794261D01*
X151181201Y-106782783D01*
X151158246Y-106771306D01*
X151495054Y-118116081D02*
X151483576Y-118127559D01*
X151449143Y-118139036D01*
X151426188Y-118139036D01*
X151391756Y-118127559D01*
X151368800Y-118104604D01*
X151357323Y-118081649D01*
X151345845Y-118035738D01*
X151345845Y-118001306D01*
X151357323Y-117955395D01*
X151368800Y-117932440D01*
X151391756Y-117909485D01*
X151426188Y-117898007D01*
X151449143Y-117898007D01*
X151483576Y-117909485D01*
X151495054Y-117920963D01*
X151724605Y-118139036D02*
X151586874Y-118139036D01*
X151655740Y-118139036D02*
X151655740Y-117898007D01*
X151632785Y-117932440D01*
X151609829Y-117955395D01*
X151586874Y-117966873D01*
X151839380Y-118139036D02*
X151885291Y-118139036D01*
X151908246Y-118127559D01*
X151919723Y-118116081D01*
X151942679Y-118081649D01*
X151954156Y-118035738D01*
X151954156Y-117943918D01*
X151942679Y-117920963D01*
X151931201Y-117909485D01*
X151908246Y-117898007D01*
X151862336Y-117898007D01*
X151839380Y-117909485D01*
X151827903Y-117920963D01*
X151816425Y-117943918D01*
X151816425Y-118001306D01*
X151827903Y-118024261D01*
X151839380Y-118035738D01*
X151862336Y-118047216D01*
X151908246Y-118047216D01*
X151931201Y-118035738D01*
X151942679Y-118024261D01*
X151954156Y-118001306D01*
X158250054Y-104771081D02*
X158238576Y-104782559D01*
X158204143Y-104794036D01*
X158181188Y-104794036D01*
X158146756Y-104782559D01*
X158123800Y-104759604D01*
X158112323Y-104736649D01*
X158100845Y-104690738D01*
X158100845Y-104656306D01*
X158112323Y-104610395D01*
X158123800Y-104587440D01*
X158146756Y-104564485D01*
X158181188Y-104553007D01*
X158204143Y-104553007D01*
X158238576Y-104564485D01*
X158250054Y-104575963D01*
X158341874Y-104575963D02*
X158353352Y-104564485D01*
X158376307Y-104553007D01*
X158433695Y-104553007D01*
X158456650Y-104564485D01*
X158468128Y-104575963D01*
X158479605Y-104598918D01*
X158479605Y-104621873D01*
X158468128Y-104656306D01*
X158330397Y-104794036D01*
X158479605Y-104794036D01*
X158628813Y-104553007D02*
X158651768Y-104553007D01*
X158674723Y-104564485D01*
X158686201Y-104575963D01*
X158697679Y-104598918D01*
X158709156Y-104644828D01*
X158709156Y-104702216D01*
X158697679Y-104748126D01*
X158686201Y-104771081D01*
X158674723Y-104782559D01*
X158651768Y-104794036D01*
X158628813Y-104794036D01*
X158605858Y-104782559D01*
X158594380Y-104771081D01*
X158582903Y-104748126D01*
X158571425Y-104702216D01*
X158571425Y-104644828D01*
X158582903Y-104598918D01*
X158594380Y-104575963D01*
X158605858Y-104564485D01*
X158628813Y-104553007D01*
X130880059Y-126141596D02*
X130902634Y-126164171D01*
X130925208Y-126231895D01*
X130925208Y-126277044D01*
X130902634Y-126344768D01*
X130857485Y-126389917D01*
X130812335Y-126412492D01*
X130722037Y-126435067D01*
X130654313Y-126435067D01*
X130564014Y-126412492D01*
X130518865Y-126389917D01*
X130473716Y-126344768D01*
X130451141Y-126277044D01*
X130451141Y-126231895D01*
X130473716Y-126164171D01*
X130496291Y-126141596D01*
X130496291Y-125961000D02*
X130473716Y-125938425D01*
X130451141Y-125893276D01*
X130451141Y-125780403D01*
X130473716Y-125735253D01*
X130496291Y-125712679D01*
X130541440Y-125690104D01*
X130586589Y-125690104D01*
X130654313Y-125712679D01*
X130925208Y-125983574D01*
X130925208Y-125690104D01*
X130925208Y-125238612D02*
X130925208Y-125509508D01*
X130925208Y-125374060D02*
X130451141Y-125374060D01*
X130518865Y-125419209D01*
X130564014Y-125464358D01*
X130586589Y-125509508D01*
X135455059Y-126141596D02*
X135477634Y-126164171D01*
X135500208Y-126231895D01*
X135500208Y-126277044D01*
X135477634Y-126344768D01*
X135432485Y-126389917D01*
X135387335Y-126412492D01*
X135297037Y-126435067D01*
X135229313Y-126435067D01*
X135139014Y-126412492D01*
X135093865Y-126389917D01*
X135048716Y-126344768D01*
X135026141Y-126277044D01*
X135026141Y-126231895D01*
X135048716Y-126164171D01*
X135071291Y-126141596D01*
X135071291Y-125961000D02*
X135048716Y-125938425D01*
X135026141Y-125893276D01*
X135026141Y-125780403D01*
X135048716Y-125735253D01*
X135071291Y-125712679D01*
X135116440Y-125690104D01*
X135161589Y-125690104D01*
X135229313Y-125712679D01*
X135500208Y-125983574D01*
X135500208Y-125690104D01*
X135071291Y-125509508D02*
X135048716Y-125486933D01*
X135026141Y-125441784D01*
X135026141Y-125328911D01*
X135048716Y-125283761D01*
X135071291Y-125261187D01*
X135116440Y-125238612D01*
X135161589Y-125238612D01*
X135229313Y-125261187D01*
X135500208Y-125532082D01*
X135500208Y-125238612D01*
D15*
X124577381Y-107883333D02*
X125291667Y-107883333D01*
X125434524Y-107930953D01*
X125529762Y-108026191D01*
X125577381Y-108169048D01*
X125577381Y-108264286D01*
X125577381Y-106883333D02*
X125577381Y-107454762D01*
X125577381Y-107169048D02*
X124577381Y-107169048D01*
X124720238Y-107264286D01*
X124815476Y-107359524D01*
X124863095Y-107454762D01*
X124367381Y-111693333D02*
X125081667Y-111693333D01*
X125224524Y-111740953D01*
X125319762Y-111836191D01*
X125367381Y-111979048D01*
X125367381Y-112074286D01*
X124462619Y-111264762D02*
X124415000Y-111217143D01*
X124367381Y-111121905D01*
X124367381Y-110883809D01*
X124415000Y-110788571D01*
X124462619Y-110740952D01*
X124557857Y-110693333D01*
X124653095Y-110693333D01*
X124795952Y-110740952D01*
X125367381Y-111312381D01*
X125367381Y-110693333D01*
X124367381Y-115503333D02*
X125081667Y-115503333D01*
X125224524Y-115550953D01*
X125319762Y-115646191D01*
X125367381Y-115789048D01*
X125367381Y-115884286D01*
X124367381Y-115122381D02*
X124367381Y-114503333D01*
X124748333Y-114836667D01*
X124748333Y-114693809D01*
X124795952Y-114598571D01*
X124843571Y-114550952D01*
X124938810Y-114503333D01*
X125176905Y-114503333D01*
X125272143Y-114550952D01*
X125319762Y-114598571D01*
X125367381Y-114693809D01*
X125367381Y-114979524D01*
X125319762Y-115074762D01*
X125272143Y-115122381D01*
X124367381Y-119313333D02*
X125081667Y-119313333D01*
X125224524Y-119360953D01*
X125319762Y-119456191D01*
X125367381Y-119599048D01*
X125367381Y-119694286D01*
X124700714Y-118408571D02*
X125367381Y-118408571D01*
X124319762Y-118646667D02*
X125034048Y-118884762D01*
X125034048Y-118265714D01*
X144101667Y-95882381D02*
X144101667Y-96596667D01*
X144054047Y-96739524D01*
X143958809Y-96834762D01*
X143815952Y-96882381D01*
X143720714Y-96882381D01*
X145054048Y-95882381D02*
X144577857Y-95882381D01*
X144530238Y-96358571D01*
X144577857Y-96310952D01*
X144673095Y-96263333D01*
X144911191Y-96263333D01*
X145006429Y-96310952D01*
X145054048Y-96358571D01*
X145101667Y-96453810D01*
X145101667Y-96691905D01*
X145054048Y-96787143D01*
X145006429Y-96834762D01*
X144911191Y-96882381D01*
X144673095Y-96882381D01*
X144577857Y-96834762D01*
X144530238Y-96787143D01*
X124991667Y-136752381D02*
X124991667Y-137466667D01*
X124944047Y-137609524D01*
X124848809Y-137704762D01*
X124705952Y-137752381D01*
X124610714Y-137752381D01*
X125896429Y-136752381D02*
X125705952Y-136752381D01*
X125610714Y-136800000D01*
X125563095Y-136847619D01*
X125467857Y-136990476D01*
X125420238Y-137180952D01*
X125420238Y-137561905D01*
X125467857Y-137657143D01*
X125515476Y-137704762D01*
X125610714Y-137752381D01*
X125801191Y-137752381D01*
X125896429Y-137704762D01*
X125944048Y-137657143D01*
X125991667Y-137561905D01*
X125991667Y-137323810D01*
X125944048Y-137228571D01*
X125896429Y-137180952D01*
X125801191Y-137133333D01*
X125610714Y-137133333D01*
X125515476Y-137180952D01*
X125467857Y-137228571D01*
X125420238Y-137323810D01*
D17*
X149438334Y-114573095D02*
X149355001Y-114454048D01*
X149295477Y-114573095D02*
X149295477Y-114323095D01*
X149390715Y-114323095D01*
X149414524Y-114335000D01*
X149426429Y-114346905D01*
X149438334Y-114370714D01*
X149438334Y-114406429D01*
X149426429Y-114430238D01*
X149414524Y-114442143D01*
X149390715Y-114454048D01*
X149295477Y-114454048D01*
X149676429Y-114573095D02*
X149533572Y-114573095D01*
X149605001Y-114573095D02*
X149605001Y-114323095D01*
X149581191Y-114358810D01*
X149557382Y-114382619D01*
X149533572Y-114394524D01*
D15*
X151000000Y-113902381D02*
X151000000Y-114140476D01*
X150761905Y-114045238D02*
X151000000Y-114140476D01*
X151238096Y-114045238D01*
X150857143Y-114330952D02*
X151000000Y-114140476D01*
X151142858Y-114330952D01*
D17*
X149438334Y-113178095D02*
X149355001Y-113059048D01*
X149295477Y-113178095D02*
X149295477Y-112928095D01*
X149390715Y-112928095D01*
X149414524Y-112940000D01*
X149426429Y-112951905D01*
X149438334Y-112975714D01*
X149438334Y-113011429D01*
X149426429Y-113035238D01*
X149414524Y-113047143D01*
X149390715Y-113059048D01*
X149295477Y-113059048D01*
X149533572Y-112951905D02*
X149545477Y-112940000D01*
X149569286Y-112928095D01*
X149628810Y-112928095D01*
X149652620Y-112940000D01*
X149664524Y-112951905D01*
X149676429Y-112975714D01*
X149676429Y-112999524D01*
X149664524Y-113035238D01*
X149521667Y-113178095D01*
X149676429Y-113178095D01*
D15*
X151025000Y-112552381D02*
X151025000Y-112790476D01*
X150786905Y-112695238D02*
X151025000Y-112790476D01*
X151263096Y-112695238D01*
X150882143Y-112980952D02*
X151025000Y-112790476D01*
X151167858Y-112980952D01*
X121288095Y-124677381D02*
X121288095Y-125486905D01*
X121335714Y-125582143D01*
X121383333Y-125629762D01*
X121478571Y-125677381D01*
X121669048Y-125677381D01*
X121764286Y-125629762D01*
X121811905Y-125582143D01*
X121859524Y-125486905D01*
X121859524Y-124677381D01*
X122859524Y-125677381D02*
X122288095Y-125677381D01*
X122573809Y-125677381D02*
X122573809Y-124677381D01*
X122478571Y-124820238D01*
X122383333Y-124915476D01*
X122288095Y-124963095D01*
X141768095Y-104772381D02*
X141768095Y-105581905D01*
X141815714Y-105677143D01*
X141863333Y-105724762D01*
X141958571Y-105772381D01*
X142149048Y-105772381D01*
X142244286Y-105724762D01*
X142291905Y-105677143D01*
X142339524Y-105581905D01*
X142339524Y-104772381D01*
X142768095Y-104867619D02*
X142815714Y-104820000D01*
X142910952Y-104772381D01*
X143149048Y-104772381D01*
X143244286Y-104820000D01*
X143291905Y-104867619D01*
X143339524Y-104962857D01*
X143339524Y-105058095D01*
X143291905Y-105200952D01*
X142720476Y-105772381D01*
X143339524Y-105772381D01*
X157643095Y-109852381D02*
X157643095Y-110661905D01*
X157690714Y-110757143D01*
X157738333Y-110804762D01*
X157833571Y-110852381D01*
X158024048Y-110852381D01*
X158119286Y-110804762D01*
X158166905Y-110757143D01*
X158214524Y-110661905D01*
X158214524Y-109852381D01*
X158595476Y-109852381D02*
X159214524Y-109852381D01*
X158881190Y-110233333D01*
X159024048Y-110233333D01*
X159119286Y-110280952D01*
X159166905Y-110328571D01*
X159214524Y-110423810D01*
X159214524Y-110661905D01*
X159166905Y-110757143D01*
X159119286Y-110804762D01*
X159024048Y-110852381D01*
X158738333Y-110852381D01*
X158643095Y-110804762D01*
X158595476Y-110757143D01*
X154463095Y-115502381D02*
X154463095Y-116311905D01*
X154510714Y-116407143D01*
X154558333Y-116454762D01*
X154653571Y-116502381D01*
X154844048Y-116502381D01*
X154939286Y-116454762D01*
X154986905Y-116407143D01*
X155034524Y-116311905D01*
X155034524Y-115502381D01*
X155939286Y-115835714D02*
X155939286Y-116502381D01*
X155701190Y-115454762D02*
X155463095Y-116169048D01*
X156082143Y-116169048D01*
D16*
X133969535Y-123719727D02*
X133969535Y-124025192D01*
X133755710Y-123383716D02*
X133969535Y-123719727D01*
X134183361Y-123383716D01*
X134733198Y-124025192D02*
X134366640Y-124025192D01*
X134549919Y-124025192D02*
X134549919Y-123383716D01*
X134488826Y-123475355D01*
X134427733Y-123536448D01*
X134366640Y-123566994D01*
D15*
X150066667Y-136977381D02*
X150066667Y-137691667D01*
X150019047Y-137834524D01*
X149923809Y-137929762D01*
X149780952Y-137977381D01*
X149685714Y-137977381D01*
X150447619Y-136977381D02*
X151114286Y-136977381D01*
X150685714Y-137977381D01*
D18*
X147789286Y-119982143D02*
X147853572Y-120003571D01*
X147960715Y-120003571D01*
X148003572Y-119982143D01*
X148025001Y-119960714D01*
X148046429Y-119917857D01*
X148046429Y-119875000D01*
X148025001Y-119832143D01*
X148003572Y-119810714D01*
X147960715Y-119789286D01*
X147875001Y-119767857D01*
X147832143Y-119746429D01*
X147810715Y-119725000D01*
X147789286Y-119682143D01*
X147789286Y-119639286D01*
X147810715Y-119596429D01*
X147832143Y-119575000D01*
X147875001Y-119553571D01*
X147982143Y-119553571D01*
X148046429Y-119575000D01*
X148496429Y-119960714D02*
X148475000Y-119982143D01*
X148410714Y-120003571D01*
X148367857Y-120003571D01*
X148303572Y-119982143D01*
X148260714Y-119939286D01*
X148239286Y-119896429D01*
X148217857Y-119810714D01*
X148217857Y-119746429D01*
X148239286Y-119660714D01*
X148260714Y-119617857D01*
X148303572Y-119575000D01*
X148367857Y-119553571D01*
X148410714Y-119553571D01*
X148475000Y-119575000D01*
X148496429Y-119596429D01*
X148903572Y-120003571D02*
X148689286Y-120003571D01*
X148689286Y-119553571D01*
X145103572Y-120007143D02*
X145167858Y-120028571D01*
X145275001Y-120028571D01*
X145317858Y-120007143D01*
X145339287Y-119985714D01*
X145360715Y-119942857D01*
X145360715Y-119900000D01*
X145339287Y-119857143D01*
X145317858Y-119835714D01*
X145275001Y-119814286D01*
X145189287Y-119792857D01*
X145146429Y-119771429D01*
X145125001Y-119750000D01*
X145103572Y-119707143D01*
X145103572Y-119664286D01*
X145125001Y-119621429D01*
X145146429Y-119600000D01*
X145189287Y-119578571D01*
X145296429Y-119578571D01*
X145360715Y-119600000D01*
X145553572Y-120028571D02*
X145553572Y-119578571D01*
X145660715Y-119578571D01*
X145725000Y-119600000D01*
X145767858Y-119642857D01*
X145789286Y-119685714D01*
X145810715Y-119771429D01*
X145810715Y-119835714D01*
X145789286Y-119921429D01*
X145767858Y-119964286D01*
X145725000Y-120007143D01*
X145660715Y-120028571D01*
X145553572Y-120028571D01*
X145982143Y-119900000D02*
X146196429Y-119900000D01*
X145939286Y-120028571D02*
X146089286Y-119578571D01*
X146239286Y-120028571D01*
X119989287Y-102103571D02*
X119775001Y-102103571D01*
X119753572Y-102317857D01*
X119775001Y-102296429D01*
X119817858Y-102275000D01*
X119925001Y-102275000D01*
X119967858Y-102296429D01*
X119989287Y-102317857D01*
X120010715Y-102360714D01*
X120010715Y-102467857D01*
X119989287Y-102510714D01*
X119967858Y-102532143D01*
X119925001Y-102553571D01*
X119817858Y-102553571D01*
X119775001Y-102532143D01*
X119753572Y-102510714D01*
X120139286Y-102103571D02*
X120289286Y-102553571D01*
X120439286Y-102103571D01*
X127405715Y-121003571D02*
X127684286Y-121003571D01*
X127534286Y-121175000D01*
X127598572Y-121175000D01*
X127641429Y-121196429D01*
X127662858Y-121217857D01*
X127684286Y-121260714D01*
X127684286Y-121367857D01*
X127662858Y-121410714D01*
X127641429Y-121432143D01*
X127598572Y-121453571D01*
X127470000Y-121453571D01*
X127427143Y-121432143D01*
X127405715Y-121410714D01*
X127877143Y-121410714D02*
X127898571Y-121432143D01*
X127877143Y-121453571D01*
X127855714Y-121432143D01*
X127877143Y-121410714D01*
X127877143Y-121453571D01*
X128048572Y-121003571D02*
X128327143Y-121003571D01*
X128177143Y-121175000D01*
X128241429Y-121175000D01*
X128284286Y-121196429D01*
X128305715Y-121217857D01*
X128327143Y-121260714D01*
X128327143Y-121367857D01*
X128305715Y-121410714D01*
X128284286Y-121432143D01*
X128241429Y-121453571D01*
X128112857Y-121453571D01*
X128070000Y-121432143D01*
X128048572Y-121410714D01*
X128455714Y-121003571D02*
X128605714Y-121453571D01*
X128755714Y-121003571D01*
X117107143Y-102125000D02*
X117064286Y-102103571D01*
X117000000Y-102103571D01*
X116935715Y-102125000D01*
X116892857Y-102167857D01*
X116871429Y-102210714D01*
X116850000Y-102296429D01*
X116850000Y-102360714D01*
X116871429Y-102446429D01*
X116892857Y-102489286D01*
X116935715Y-102532143D01*
X117000000Y-102553571D01*
X117042857Y-102553571D01*
X117107143Y-102532143D01*
X117128572Y-102510714D01*
X117128572Y-102360714D01*
X117042857Y-102360714D01*
X117321429Y-102553571D02*
X117321429Y-102103571D01*
X117578572Y-102553571D01*
X117578572Y-102103571D01*
X117792858Y-102553571D02*
X117792858Y-102103571D01*
X117900001Y-102103571D01*
X117964286Y-102125000D01*
X118007144Y-102167857D01*
X118028572Y-102210714D01*
X118050001Y-102296429D01*
X118050001Y-102360714D01*
X118028572Y-102446429D01*
X118007144Y-102489286D01*
X117964286Y-102532143D01*
X117900001Y-102553571D01*
X117792858Y-102553571D01*
D15*
X122986667Y-95852381D02*
X122653333Y-95376190D01*
X122415238Y-95852381D02*
X122415238Y-94852381D01*
X122796191Y-94852381D01*
X122891429Y-94900000D01*
X122939048Y-94947619D01*
X122986667Y-95042857D01*
X122986667Y-95185714D01*
X122939048Y-95280952D01*
X122891429Y-95328571D01*
X122796191Y-95376190D01*
X122415238Y-95376190D01*
X123415238Y-95328571D02*
X123748572Y-95328571D01*
X123891429Y-95852381D02*
X123415238Y-95852381D01*
X123415238Y-94852381D01*
X123891429Y-94852381D01*
X124653334Y-95328571D02*
X124320000Y-95328571D01*
X124320000Y-95852381D02*
X124320000Y-94852381D01*
X124796191Y-94852381D01*
X125320000Y-94852381D02*
X125320000Y-95090476D01*
X125081905Y-94995238D02*
X125320000Y-95090476D01*
X125558096Y-94995238D01*
X125177143Y-95280952D02*
X125320000Y-95090476D01*
X125462858Y-95280952D01*
X126081905Y-94852381D02*
X126081905Y-95090476D01*
X125843810Y-94995238D02*
X126081905Y-95090476D01*
X126320001Y-94995238D01*
X125939048Y-95280952D02*
X126081905Y-95090476D01*
X126224763Y-95280952D01*
M02*
