G04 #@! TF.FileFunction,Copper,L2,Bot,Signal*
%FSLAX46Y46*%
G04 Gerber Fmt 4.6, Leading zero omitted, Abs format (unit mm)*
G04 Created by KiCad (PCBNEW 4.0.7) date 12/16/19 01:30:10*
%MOMM*%
%LPD*%
G01*
G04 APERTURE LIST*
%ADD10C,0.100000*%
%ADD11R,1.700000X1.700000*%
%ADD12O,1.700000X1.700000*%
%ADD13C,1.500000*%
%ADD14C,0.508000*%
%ADD15C,0.152400*%
%ADD16C,0.254000*%
G04 APERTURE END LIST*
D10*
D11*
X122585000Y-107550000D03*
D12*
X120045000Y-107550000D03*
X117505000Y-107550000D03*
D11*
X122585000Y-111360000D03*
D12*
X120045000Y-111360000D03*
X117505000Y-111360000D03*
D11*
X122585000Y-115170000D03*
D12*
X120045000Y-115170000D03*
X117505000Y-115170000D03*
D11*
X122585000Y-118980000D03*
D12*
X120045000Y-118980000D03*
X117505000Y-118980000D03*
D11*
X141260000Y-96430000D03*
D12*
X138720000Y-96430000D03*
X136180000Y-96430000D03*
D11*
X133485000Y-137370000D03*
D12*
X130945000Y-137370000D03*
X128405000Y-137370000D03*
D11*
X147550000Y-137325000D03*
D12*
X145010000Y-137325000D03*
X142470000Y-137325000D03*
X139930000Y-137325000D03*
X137390000Y-137325000D03*
D13*
X148275000Y-121175000D03*
X145650000Y-121175000D03*
X120050000Y-103775000D03*
X128000000Y-122625000D03*
X117500000Y-103775000D03*
D14*
X119825000Y-126450000D03*
X119825000Y-130225000D03*
X129830000Y-118440000D03*
X138010000Y-118440000D03*
X158380000Y-111450000D03*
X129840000Y-116690000D03*
X129910000Y-113300000D03*
X147250000Y-110550000D03*
X146350000Y-112150000D03*
X143250000Y-122950000D03*
X143475000Y-118125000D03*
X128800000Y-104250000D03*
X128475000Y-112300000D03*
X133600000Y-97975000D03*
X134025000Y-99675000D03*
X150650000Y-111450000D03*
X153100000Y-111400000D03*
X152410000Y-107960000D03*
X152410000Y-106900000D03*
X126780000Y-110780000D03*
X126940000Y-108600000D03*
X149225000Y-106225000D03*
X150650000Y-106225000D03*
X144650000Y-115225000D03*
X144625000Y-117675000D03*
X131225000Y-128350000D03*
X143825000Y-128125000D03*
X143775000Y-111825000D03*
X127275000Y-117925000D03*
X141525000Y-116775000D03*
X132460000Y-127620000D03*
X132430000Y-128630000D03*
X142970000Y-128640000D03*
X142970000Y-127580000D03*
X142980000Y-118610000D03*
X133150000Y-99780000D03*
X129890000Y-110800000D03*
X133480000Y-134110000D03*
X133490000Y-132310000D03*
X133490000Y-127640000D03*
X142490000Y-118090000D03*
X142200000Y-116825000D03*
X144125000Y-116800000D03*
X144575000Y-128125000D03*
X136200000Y-133550000D03*
X127920000Y-108590000D03*
X125600000Y-121070000D03*
X125610000Y-122800000D03*
X134100000Y-104075000D03*
X130825000Y-104050000D03*
X126225000Y-108575000D03*
X126125000Y-119875000D03*
X124475000Y-126275000D03*
X127125000Y-132825000D03*
X136225000Y-132850000D03*
X138500000Y-132875000D03*
X148460000Y-113940000D03*
X152910000Y-108410000D03*
X157675000Y-116200000D03*
X151100000Y-116150000D03*
X151125000Y-112000000D03*
X152550000Y-112000000D03*
X158650000Y-115550000D03*
X146175000Y-115550000D03*
X147775000Y-113900000D03*
D15*
X119825000Y-130225000D02*
X119825000Y-126450000D01*
X138010000Y-118440000D02*
X129830000Y-118440000D01*
X153100000Y-111400000D02*
X158330000Y-111400000D01*
X158330000Y-111400000D02*
X158380000Y-111450000D01*
X129910000Y-116620000D02*
X129910000Y-113300000D01*
X129840000Y-116690000D02*
X129910000Y-116620000D01*
X147250000Y-111250000D02*
X147250000Y-110550000D01*
X146350000Y-112150000D02*
X147250000Y-111250000D01*
X143500000Y-122700000D02*
X143250000Y-122950000D01*
X143500000Y-118150000D02*
X143500000Y-122700000D01*
X143475000Y-118125000D02*
X143500000Y-118150000D01*
X128800000Y-111975000D02*
X128800000Y-104250000D01*
X128475000Y-112300000D02*
X128800000Y-111975000D01*
X133600000Y-99250000D02*
X133600000Y-97975000D01*
X134025000Y-99675000D02*
X133600000Y-99250000D01*
X153050000Y-111450000D02*
X150650000Y-111450000D01*
X153100000Y-111400000D02*
X153050000Y-111450000D01*
X152410000Y-107960000D02*
X152410000Y-106900000D01*
X126780000Y-108760000D02*
X126780000Y-110780000D01*
X126940000Y-108600000D02*
X126780000Y-108760000D01*
X150650000Y-106225000D02*
X149225000Y-106225000D01*
X144650000Y-117650000D02*
X144650000Y-115225000D01*
X144625000Y-117675000D02*
X144650000Y-117650000D01*
X131225000Y-128350000D02*
X131450000Y-128125000D01*
X131450000Y-128125000D02*
X143825000Y-128125000D01*
X122585000Y-102290000D02*
X122585000Y-107550000D01*
X122625000Y-102250000D02*
X122585000Y-102290000D01*
X128375000Y-102250000D02*
X122625000Y-102250000D01*
X133400000Y-97225000D02*
X128375000Y-102250000D01*
X133950000Y-97225000D02*
X133400000Y-97225000D01*
X134100000Y-97375000D02*
X133950000Y-97225000D01*
X134100000Y-98475000D02*
X134100000Y-97375000D01*
X134125000Y-98500000D02*
X134100000Y-98475000D01*
X140025000Y-98500000D02*
X134125000Y-98500000D01*
X143825000Y-102300000D02*
X140025000Y-98500000D01*
X143825000Y-111775000D02*
X143825000Y-102300000D01*
X143775000Y-111825000D02*
X143825000Y-111775000D01*
X141550000Y-117925000D02*
X127275000Y-117925000D01*
X141650000Y-117825000D02*
X141550000Y-117925000D01*
X141650000Y-116900000D02*
X141650000Y-117825000D01*
X141525000Y-116775000D02*
X141650000Y-116900000D01*
X129200000Y-125595000D02*
X122585000Y-118980000D01*
X129200000Y-127180000D02*
X129200000Y-125595000D01*
X129260000Y-127240000D02*
X129200000Y-127180000D01*
X132080000Y-127240000D02*
X129260000Y-127240000D01*
X132460000Y-127620000D02*
X132080000Y-127240000D01*
X142960000Y-128630000D02*
X132430000Y-128630000D01*
X142970000Y-128640000D02*
X142960000Y-128630000D01*
X142970000Y-123440000D02*
X142970000Y-127580000D01*
X142740000Y-123210000D02*
X142970000Y-123440000D01*
X142740000Y-122750000D02*
X142740000Y-123210000D01*
X142920000Y-122570000D02*
X142740000Y-122750000D01*
X142920000Y-118670000D02*
X142920000Y-122570000D01*
X142980000Y-118610000D02*
X142920000Y-118670000D01*
X130980000Y-101950000D02*
X133150000Y-99780000D01*
X130980000Y-102790000D02*
X130980000Y-101950000D01*
X129890000Y-103880000D02*
X130980000Y-102790000D01*
X129890000Y-110800000D02*
X129890000Y-103880000D01*
X133480000Y-132320000D02*
X133480000Y-134110000D01*
X133490000Y-132310000D02*
X133480000Y-132320000D01*
X141920000Y-127640000D02*
X133490000Y-127640000D01*
X141950000Y-127610000D02*
X141920000Y-127640000D01*
X141950000Y-122400000D02*
X141950000Y-127610000D01*
X142470000Y-121880000D02*
X141950000Y-122400000D01*
X142470000Y-118110000D02*
X142470000Y-121880000D01*
X142490000Y-118090000D02*
X142470000Y-118110000D01*
X142200000Y-116825000D02*
X144150000Y-116825000D01*
X144150000Y-116825000D02*
X144125000Y-116800000D01*
X144575000Y-128125000D02*
X142900000Y-129800000D01*
X142900000Y-129800000D02*
X142900000Y-132125000D01*
X142900000Y-132125000D02*
X141475000Y-133550000D01*
X141475000Y-133550000D02*
X136200000Y-133550000D01*
X145010000Y-137325000D02*
X145010000Y-135700000D01*
X127920000Y-112300000D02*
X127920000Y-108590000D01*
X126740000Y-113480000D02*
X127920000Y-112300000D01*
X126740000Y-120180000D02*
X126740000Y-113480000D01*
X126390000Y-120530000D02*
X126740000Y-120180000D01*
X126140000Y-120530000D02*
X126390000Y-120530000D01*
X125600000Y-121070000D02*
X126140000Y-120530000D01*
X125610000Y-124340000D02*
X125610000Y-122800000D01*
X126980000Y-125710000D02*
X125610000Y-124340000D01*
X126980000Y-130100000D02*
X126980000Y-125710000D01*
X127440000Y-130560000D02*
X126980000Y-130100000D01*
X133710000Y-130560000D02*
X127440000Y-130560000D01*
X134010000Y-130860000D02*
X133710000Y-130560000D01*
X134010000Y-133990000D02*
X134010000Y-130860000D01*
X134160000Y-134140000D02*
X134010000Y-133990000D01*
X143450000Y-134140000D02*
X134160000Y-134140000D01*
X145010000Y-135700000D02*
X143450000Y-134140000D01*
X130850000Y-104075000D02*
X134100000Y-104075000D01*
X130825000Y-104050000D02*
X130850000Y-104075000D01*
X126225000Y-119775000D02*
X126225000Y-108575000D01*
X126125000Y-119875000D02*
X126225000Y-119775000D01*
X124475000Y-132700000D02*
X124475000Y-126275000D01*
X124425000Y-132750000D02*
X124475000Y-132700000D01*
X127050000Y-132750000D02*
X124425000Y-132750000D01*
X127125000Y-132825000D02*
X127050000Y-132750000D01*
X138475000Y-132850000D02*
X136225000Y-132850000D01*
X138500000Y-132875000D02*
X138475000Y-132850000D01*
X148460000Y-109610000D02*
X148460000Y-113940000D01*
X148430000Y-109580000D02*
X148460000Y-109610000D01*
X151590000Y-109580000D02*
X148430000Y-109580000D01*
X152570000Y-108600000D02*
X151590000Y-109580000D01*
X152720000Y-108600000D02*
X152570000Y-108600000D01*
X152910000Y-108410000D02*
X152720000Y-108600000D01*
X151150000Y-116200000D02*
X157675000Y-116200000D01*
X151100000Y-116150000D02*
X151150000Y-116200000D01*
X152550000Y-112000000D02*
X151125000Y-112000000D01*
X147012500Y-114662500D02*
X147700000Y-115350000D01*
X158450000Y-115350000D02*
X158650000Y-115550000D01*
X147700000Y-115350000D02*
X158450000Y-115350000D01*
X146175000Y-115500000D02*
X146175000Y-115550000D01*
X147775000Y-113900000D02*
X147012500Y-114662500D01*
X147012500Y-114662500D02*
X146175000Y-115500000D01*
D16*
G36*
X135413076Y-95158355D02*
X134984817Y-95548642D01*
X134738514Y-96073108D01*
X134859181Y-96303000D01*
X136053000Y-96303000D01*
X136053000Y-96283000D01*
X136307000Y-96283000D01*
X136307000Y-96303000D01*
X136327000Y-96303000D01*
X136327000Y-96557000D01*
X136307000Y-96557000D01*
X136307000Y-96577000D01*
X136053000Y-96577000D01*
X136053000Y-96557000D01*
X134859181Y-96557000D01*
X134738514Y-96786892D01*
X134984817Y-97311358D01*
X135413076Y-97701645D01*
X135623500Y-97788800D01*
X134811200Y-97788800D01*
X134811200Y-97375000D01*
X134757063Y-97102836D01*
X134757063Y-97102835D01*
X134602894Y-96872106D01*
X134452894Y-96722106D01*
X134222165Y-96567937D01*
X133950000Y-96513800D01*
X133400000Y-96513800D01*
X133182820Y-96557000D01*
X133127835Y-96567937D01*
X132897106Y-96722106D01*
X128080412Y-101538800D01*
X122625000Y-101538800D01*
X122352836Y-101592937D01*
X122122106Y-101747105D01*
X122082106Y-101787106D01*
X121927937Y-102017835D01*
X121874376Y-102287106D01*
X121873800Y-102290000D01*
X121873800Y-106052560D01*
X121735000Y-106052560D01*
X121499683Y-106096838D01*
X121283559Y-106235910D01*
X121138569Y-106448110D01*
X121124914Y-106515541D01*
X121095054Y-106470853D01*
X120613285Y-106148946D01*
X120045000Y-106035907D01*
X119476715Y-106148946D01*
X118994946Y-106470853D01*
X118767298Y-106811553D01*
X118700183Y-106668642D01*
X118271924Y-106278355D01*
X117861890Y-106108524D01*
X117632000Y-106229845D01*
X117632000Y-107423000D01*
X117652000Y-107423000D01*
X117652000Y-107677000D01*
X117632000Y-107677000D01*
X117632000Y-108870155D01*
X117861890Y-108991476D01*
X118271924Y-108821645D01*
X118700183Y-108431358D01*
X118767298Y-108288447D01*
X118994946Y-108629147D01*
X119476715Y-108951054D01*
X120045000Y-109064093D01*
X120613285Y-108951054D01*
X121095054Y-108629147D01*
X121122850Y-108587548D01*
X121131838Y-108635317D01*
X121270910Y-108851441D01*
X121483110Y-108996431D01*
X121735000Y-109047440D01*
X123435000Y-109047440D01*
X123670317Y-109003162D01*
X123886441Y-108864090D01*
X124031431Y-108651890D01*
X124082440Y-108400000D01*
X124082440Y-106700000D01*
X124038162Y-106464683D01*
X123899090Y-106248559D01*
X123686890Y-106103569D01*
X123435000Y-106052560D01*
X123296200Y-106052560D01*
X123296200Y-102961200D01*
X128375000Y-102961200D01*
X128647165Y-102907063D01*
X128877894Y-102752894D01*
X133388800Y-98241988D01*
X133388800Y-98475000D01*
X133442937Y-98747165D01*
X133597106Y-98977894D01*
X133622105Y-99002894D01*
X133776274Y-99105906D01*
X133852836Y-99157063D01*
X134125000Y-99211200D01*
X139730412Y-99211200D01*
X143113800Y-102594589D01*
X143113800Y-111228907D01*
X143021782Y-111320764D01*
X142886154Y-111647391D01*
X142885846Y-112001057D01*
X143020903Y-112327920D01*
X143270764Y-112578218D01*
X143597391Y-112713846D01*
X143951057Y-112714154D01*
X144277920Y-112579097D01*
X144528218Y-112329236D01*
X144663846Y-112002609D01*
X144664154Y-111648943D01*
X144536200Y-111339271D01*
X144536200Y-106401057D01*
X148335846Y-106401057D01*
X148470903Y-106727920D01*
X148720764Y-106978218D01*
X149047391Y-107113846D01*
X149401057Y-107114154D01*
X149727920Y-106979097D01*
X149770892Y-106936200D01*
X150103819Y-106936200D01*
X150145764Y-106978218D01*
X150472391Y-107113846D01*
X150826057Y-107114154D01*
X151152920Y-106979097D01*
X151403218Y-106729236D01*
X151538846Y-106402609D01*
X151539154Y-106048943D01*
X151404097Y-105722080D01*
X151154236Y-105471782D01*
X150827609Y-105336154D01*
X150473943Y-105335846D01*
X150147080Y-105470903D01*
X150104108Y-105513800D01*
X149771181Y-105513800D01*
X149729236Y-105471782D01*
X149402609Y-105336154D01*
X149048943Y-105335846D01*
X148722080Y-105470903D01*
X148471782Y-105720764D01*
X148336154Y-106047391D01*
X148335846Y-106401057D01*
X144536200Y-106401057D01*
X144536200Y-102300000D01*
X144482063Y-102027836D01*
X144448654Y-101977836D01*
X144327895Y-101797106D01*
X141013408Y-98482619D01*
X154374613Y-98482619D01*
X154714155Y-99304372D01*
X155342321Y-99933636D01*
X156163481Y-100274611D01*
X157052619Y-100275387D01*
X157874372Y-99935845D01*
X158503636Y-99307679D01*
X158844611Y-98486519D01*
X158845387Y-97597381D01*
X158505845Y-96775628D01*
X157877679Y-96146364D01*
X157056519Y-95805389D01*
X156167381Y-95804613D01*
X155345628Y-96144155D01*
X154716364Y-96772321D01*
X154375389Y-97593481D01*
X154374613Y-98482619D01*
X141013408Y-98482619D01*
X140527894Y-97997106D01*
X140423632Y-97927440D01*
X142110000Y-97927440D01*
X142345317Y-97883162D01*
X142561441Y-97744090D01*
X142706431Y-97531890D01*
X142757440Y-97280000D01*
X142757440Y-95580000D01*
X142713162Y-95344683D01*
X142574090Y-95128559D01*
X142488386Y-95070000D01*
X159655000Y-95070000D01*
X159655000Y-138650000D01*
X148834486Y-138650000D01*
X148851441Y-138639090D01*
X148996431Y-138426890D01*
X149047440Y-138175000D01*
X149047440Y-136475000D01*
X149003162Y-136239683D01*
X148889225Y-136062619D01*
X154324613Y-136062619D01*
X154664155Y-136884372D01*
X155292321Y-137513636D01*
X156113481Y-137854611D01*
X157002619Y-137855387D01*
X157824372Y-137515845D01*
X158453636Y-136887679D01*
X158794611Y-136066519D01*
X158795387Y-135177381D01*
X158455845Y-134355628D01*
X157827679Y-133726364D01*
X157006519Y-133385389D01*
X156117381Y-133384613D01*
X155295628Y-133724155D01*
X154666364Y-134352321D01*
X154325389Y-135173481D01*
X154324613Y-136062619D01*
X148889225Y-136062619D01*
X148864090Y-136023559D01*
X148651890Y-135878569D01*
X148400000Y-135827560D01*
X146700000Y-135827560D01*
X146464683Y-135871838D01*
X146248559Y-136010910D01*
X146103569Y-136223110D01*
X146089914Y-136290541D01*
X146060054Y-136245853D01*
X145721200Y-136019439D01*
X145721200Y-135700000D01*
X145667063Y-135427836D01*
X145667063Y-135427835D01*
X145512894Y-135197106D01*
X143952894Y-133637106D01*
X143722165Y-133482937D01*
X143450000Y-133428800D01*
X142601988Y-133428800D01*
X143402894Y-132627895D01*
X143557062Y-132397165D01*
X143557063Y-132397164D01*
X143611200Y-132125000D01*
X143611200Y-130094588D01*
X144691686Y-129014102D01*
X144751057Y-129014154D01*
X145077920Y-128879097D01*
X145328218Y-128629236D01*
X145463846Y-128302609D01*
X145464154Y-127948943D01*
X145329097Y-127622080D01*
X145079236Y-127371782D01*
X144752609Y-127236154D01*
X144398943Y-127235846D01*
X144199915Y-127318083D01*
X144002609Y-127236154D01*
X143789748Y-127235969D01*
X143724097Y-127077080D01*
X143681200Y-127034108D01*
X143681200Y-123440000D01*
X143627063Y-123167836D01*
X143627063Y-123167835D01*
X143493260Y-122967585D01*
X143577062Y-122842165D01*
X143577063Y-122842164D01*
X143631200Y-122570000D01*
X143631200Y-121449285D01*
X144264760Y-121449285D01*
X144475169Y-121958515D01*
X144864436Y-122348461D01*
X145373298Y-122559759D01*
X145924285Y-122560240D01*
X146433515Y-122349831D01*
X146823461Y-121960564D01*
X146962581Y-121625526D01*
X147100169Y-121958515D01*
X147489436Y-122348461D01*
X147998298Y-122559759D01*
X148549285Y-122560240D01*
X149058515Y-122349831D01*
X149448461Y-121960564D01*
X149659759Y-121451702D01*
X149660240Y-120900715D01*
X149449831Y-120391485D01*
X149060564Y-120001539D01*
X148551702Y-119790241D01*
X148000715Y-119789760D01*
X147491485Y-120000169D01*
X147101539Y-120389436D01*
X146962419Y-120724474D01*
X146824831Y-120391485D01*
X146435564Y-120001539D01*
X145926702Y-119790241D01*
X145375715Y-119789760D01*
X144866485Y-120000169D01*
X144476539Y-120389436D01*
X144265241Y-120898298D01*
X144264760Y-121449285D01*
X143631200Y-121449285D01*
X143631200Y-119216076D01*
X143733218Y-119114236D01*
X143868846Y-118787609D01*
X143869154Y-118433943D01*
X143734097Y-118107080D01*
X143484236Y-117856782D01*
X143328881Y-117792273D01*
X143244097Y-117587080D01*
X143193306Y-117536200D01*
X143603776Y-117536200D01*
X143620764Y-117553218D01*
X143736064Y-117601095D01*
X143735846Y-117851057D01*
X143870903Y-118177920D01*
X144120764Y-118428218D01*
X144447391Y-118563846D01*
X144801057Y-118564154D01*
X145127920Y-118429097D01*
X145378218Y-118179236D01*
X145513846Y-117852609D01*
X145514154Y-117498943D01*
X145379097Y-117172080D01*
X145361200Y-117154152D01*
X145361200Y-115908428D01*
X145420903Y-116052920D01*
X145670764Y-116303218D01*
X145997391Y-116438846D01*
X146351057Y-116439154D01*
X146677920Y-116304097D01*
X146928218Y-116054236D01*
X147063846Y-115727609D01*
X147063853Y-115719641D01*
X147197106Y-115852894D01*
X147427835Y-116007063D01*
X147700000Y-116061200D01*
X150211077Y-116061200D01*
X150210846Y-116326057D01*
X150345903Y-116652920D01*
X150595764Y-116903218D01*
X150922391Y-117038846D01*
X151276057Y-117039154D01*
X151585729Y-116911200D01*
X157128819Y-116911200D01*
X157170764Y-116953218D01*
X157497391Y-117088846D01*
X157851057Y-117089154D01*
X158177920Y-116954097D01*
X158428218Y-116704236D01*
X158538394Y-116438903D01*
X158826057Y-116439154D01*
X159152920Y-116304097D01*
X159403218Y-116054236D01*
X159538846Y-115727609D01*
X159539154Y-115373943D01*
X159404097Y-115047080D01*
X159154236Y-114796782D01*
X158827609Y-114661154D01*
X158561215Y-114660922D01*
X158450000Y-114638800D01*
X149018314Y-114638800D01*
X149213218Y-114444236D01*
X149348846Y-114117609D01*
X149349154Y-113763943D01*
X149214097Y-113437080D01*
X149171200Y-113394108D01*
X149171200Y-112176057D01*
X150235846Y-112176057D01*
X150370903Y-112502920D01*
X150620764Y-112753218D01*
X150947391Y-112888846D01*
X151301057Y-112889154D01*
X151627920Y-112754097D01*
X151670892Y-112711200D01*
X152003819Y-112711200D01*
X152045764Y-112753218D01*
X152372391Y-112888846D01*
X152726057Y-112889154D01*
X153052920Y-112754097D01*
X153303218Y-112504236D01*
X153438846Y-112177609D01*
X153439154Y-111823943D01*
X153304097Y-111497080D01*
X153054236Y-111246782D01*
X152727609Y-111111154D01*
X152373943Y-111110846D01*
X152047080Y-111245903D01*
X152004108Y-111288800D01*
X151671181Y-111288800D01*
X151629236Y-111246782D01*
X151302609Y-111111154D01*
X150948943Y-111110846D01*
X150622080Y-111245903D01*
X150371782Y-111495764D01*
X150236154Y-111822391D01*
X150235846Y-112176057D01*
X149171200Y-112176057D01*
X149171200Y-110291200D01*
X151590000Y-110291200D01*
X151862165Y-110237063D01*
X152092894Y-110082894D01*
X152876817Y-109298972D01*
X153086057Y-109299154D01*
X153412920Y-109164097D01*
X153663218Y-108914236D01*
X153798846Y-108587609D01*
X153799154Y-108233943D01*
X153664097Y-107907080D01*
X153414236Y-107656782D01*
X153211896Y-107572763D01*
X153164097Y-107457080D01*
X153137236Y-107430172D01*
X153163218Y-107404236D01*
X153298846Y-107077609D01*
X153299154Y-106723943D01*
X153164097Y-106397080D01*
X152914236Y-106146782D01*
X152587609Y-106011154D01*
X152233943Y-106010846D01*
X151907080Y-106145903D01*
X151656782Y-106395764D01*
X151521154Y-106722391D01*
X151520846Y-107076057D01*
X151655903Y-107402920D01*
X151682764Y-107429828D01*
X151656782Y-107455764D01*
X151521154Y-107782391D01*
X151520846Y-108136057D01*
X151655903Y-108462920D01*
X151678577Y-108485634D01*
X151295412Y-108868800D01*
X148430000Y-108868800D01*
X148157835Y-108922937D01*
X147927106Y-109077106D01*
X147772937Y-109307835D01*
X147718800Y-109580000D01*
X147748800Y-109730820D01*
X147748800Y-113010977D01*
X147598943Y-113010846D01*
X147272080Y-113145903D01*
X147021782Y-113395764D01*
X146886154Y-113722391D01*
X146886101Y-113783111D01*
X146008358Y-114660854D01*
X145998943Y-114660846D01*
X145672080Y-114795903D01*
X145503949Y-114963740D01*
X145404097Y-114722080D01*
X145154236Y-114471782D01*
X144827609Y-114336154D01*
X144473943Y-114335846D01*
X144147080Y-114470903D01*
X143896782Y-114720764D01*
X143761154Y-115047391D01*
X143760846Y-115401057D01*
X143895903Y-115727920D01*
X143938800Y-115770892D01*
X143938800Y-115915037D01*
X143622080Y-116045903D01*
X143554064Y-116113800D01*
X142746181Y-116113800D01*
X142704236Y-116071782D01*
X142377609Y-115936154D01*
X142023943Y-115935846D01*
X141922862Y-115977612D01*
X141702609Y-115886154D01*
X141348943Y-115885846D01*
X141022080Y-116020903D01*
X140771782Y-116270764D01*
X140636154Y-116597391D01*
X140635846Y-116951057D01*
X140744409Y-117213800D01*
X127821181Y-117213800D01*
X127779236Y-117171782D01*
X127452609Y-117036154D01*
X127451200Y-117036153D01*
X127451200Y-113774588D01*
X128422894Y-112802894D01*
X128577063Y-112572165D01*
X128631200Y-112300000D01*
X128631200Y-110976057D01*
X129000846Y-110976057D01*
X129135903Y-111302920D01*
X129385764Y-111553218D01*
X129712391Y-111688846D01*
X130066057Y-111689154D01*
X130392920Y-111554097D01*
X130643218Y-111304236D01*
X130778846Y-110977609D01*
X130779154Y-110623943D01*
X130644097Y-110297080D01*
X130601200Y-110254108D01*
X130601200Y-104919666D01*
X130647391Y-104938846D01*
X131001057Y-104939154D01*
X131327920Y-104804097D01*
X131345848Y-104786200D01*
X133553819Y-104786200D01*
X133595764Y-104828218D01*
X133922391Y-104963846D01*
X134276057Y-104964154D01*
X134602920Y-104829097D01*
X134853218Y-104579236D01*
X134988846Y-104252609D01*
X134989154Y-103898943D01*
X134854097Y-103572080D01*
X134604236Y-103321782D01*
X134277609Y-103186154D01*
X133923943Y-103185846D01*
X133597080Y-103320903D01*
X133554108Y-103363800D01*
X131411988Y-103363800D01*
X131482894Y-103292894D01*
X131637063Y-103062165D01*
X131691200Y-102790000D01*
X131691200Y-102244588D01*
X133266687Y-100669102D01*
X133326057Y-100669154D01*
X133652920Y-100534097D01*
X133903218Y-100284236D01*
X134038846Y-99957609D01*
X134039154Y-99603943D01*
X133904097Y-99277080D01*
X133654236Y-99026782D01*
X133327609Y-98891154D01*
X132973943Y-98890846D01*
X132647080Y-99025903D01*
X132396782Y-99275764D01*
X132261154Y-99602391D01*
X132261101Y-99663110D01*
X130477106Y-101447106D01*
X130322937Y-101677835D01*
X130322937Y-101677836D01*
X130268800Y-101950000D01*
X130268800Y-102495412D01*
X129387106Y-103377106D01*
X129232937Y-103607835D01*
X129232937Y-103607836D01*
X129178800Y-103880000D01*
X129178800Y-110253819D01*
X129136782Y-110295764D01*
X129001154Y-110622391D01*
X129000846Y-110976057D01*
X128631200Y-110976057D01*
X128631200Y-109136181D01*
X128673218Y-109094236D01*
X128808846Y-108767609D01*
X128809154Y-108413943D01*
X128674097Y-108087080D01*
X128424236Y-107836782D01*
X128097609Y-107701154D01*
X127743943Y-107700846D01*
X127417559Y-107835705D01*
X127117609Y-107711154D01*
X126763943Y-107710846D01*
X126612635Y-107773365D01*
X126402609Y-107686154D01*
X126048943Y-107685846D01*
X125722080Y-107820903D01*
X125471782Y-108070764D01*
X125336154Y-108397391D01*
X125335846Y-108751057D01*
X125470903Y-109077920D01*
X125513800Y-109120892D01*
X125513800Y-119228994D01*
X125371782Y-119370764D01*
X125236154Y-119697391D01*
X125235846Y-120051057D01*
X125309083Y-120228305D01*
X125097080Y-120315903D01*
X125011811Y-120401023D01*
X124082440Y-119471652D01*
X124082440Y-118130000D01*
X124038162Y-117894683D01*
X123899090Y-117678559D01*
X123686890Y-117533569D01*
X123435000Y-117482560D01*
X121735000Y-117482560D01*
X121499683Y-117526838D01*
X121283559Y-117665910D01*
X121138569Y-117878110D01*
X121124914Y-117945541D01*
X121095054Y-117900853D01*
X120613285Y-117578946D01*
X120045000Y-117465907D01*
X119476715Y-117578946D01*
X118994946Y-117900853D01*
X118767298Y-118241553D01*
X118700183Y-118098642D01*
X118271924Y-117708355D01*
X117861890Y-117538524D01*
X117632000Y-117659845D01*
X117632000Y-118853000D01*
X117652000Y-118853000D01*
X117652000Y-119107000D01*
X117632000Y-119107000D01*
X117632000Y-120300155D01*
X117861890Y-120421476D01*
X118271924Y-120251645D01*
X118700183Y-119861358D01*
X118767298Y-119718447D01*
X118994946Y-120059147D01*
X119476715Y-120381054D01*
X120045000Y-120494093D01*
X120613285Y-120381054D01*
X121095054Y-120059147D01*
X121122850Y-120017548D01*
X121131838Y-120065317D01*
X121270910Y-120281441D01*
X121483110Y-120426431D01*
X121735000Y-120477440D01*
X123076652Y-120477440D01*
X124875895Y-122276684D01*
X124856782Y-122295764D01*
X124721154Y-122622391D01*
X124720846Y-122976057D01*
X124855903Y-123302920D01*
X124898800Y-123345892D01*
X124898800Y-124340000D01*
X124952937Y-124612165D01*
X125107106Y-124842894D01*
X126268800Y-126004589D01*
X126268800Y-130100000D01*
X126322937Y-130372165D01*
X126477106Y-130602894D01*
X126937105Y-131062894D01*
X127167835Y-131217063D01*
X127212990Y-131226045D01*
X127440000Y-131271200D01*
X133298800Y-131271200D01*
X133298800Y-131427103D01*
X132987080Y-131555903D01*
X132736782Y-131805764D01*
X132601154Y-132132391D01*
X132600846Y-132486057D01*
X132735903Y-132812920D01*
X132768800Y-132845875D01*
X132768800Y-133563819D01*
X132726782Y-133605764D01*
X132591154Y-133932391D01*
X132590846Y-134286057D01*
X132725903Y-134612920D01*
X132975764Y-134863218D01*
X133302391Y-134998846D01*
X133656057Y-134999154D01*
X133982920Y-134864097D01*
X134023115Y-134823972D01*
X134160000Y-134851200D01*
X143155412Y-134851200D01*
X144298800Y-135994588D01*
X144298800Y-136019439D01*
X143959946Y-136245853D01*
X143732298Y-136586553D01*
X143665183Y-136443642D01*
X143236924Y-136053355D01*
X142826890Y-135883524D01*
X142597000Y-136004845D01*
X142597000Y-137198000D01*
X142617000Y-137198000D01*
X142617000Y-137452000D01*
X142597000Y-137452000D01*
X142597000Y-137472000D01*
X142343000Y-137472000D01*
X142343000Y-137452000D01*
X142323000Y-137452000D01*
X142323000Y-137198000D01*
X142343000Y-137198000D01*
X142343000Y-136004845D01*
X142113110Y-135883524D01*
X141703076Y-136053355D01*
X141274817Y-136443642D01*
X141207702Y-136586553D01*
X140980054Y-136245853D01*
X140498285Y-135923946D01*
X139930000Y-135810907D01*
X139361715Y-135923946D01*
X138879946Y-136245853D01*
X138660000Y-136575026D01*
X138440054Y-136245853D01*
X137958285Y-135923946D01*
X137390000Y-135810907D01*
X136821715Y-135923946D01*
X136339946Y-136245853D01*
X136018039Y-136727622D01*
X135905000Y-137295907D01*
X135905000Y-137354093D01*
X136018039Y-137922378D01*
X136339946Y-138404147D01*
X136707892Y-138650000D01*
X134809734Y-138650000D01*
X134931431Y-138471890D01*
X134982440Y-138220000D01*
X134982440Y-136520000D01*
X134938162Y-136284683D01*
X134799090Y-136068559D01*
X134586890Y-135923569D01*
X134335000Y-135872560D01*
X132635000Y-135872560D01*
X132399683Y-135916838D01*
X132183559Y-136055910D01*
X132038569Y-136268110D01*
X132024914Y-136335541D01*
X131995054Y-136290853D01*
X131513285Y-135968946D01*
X130945000Y-135855907D01*
X130376715Y-135968946D01*
X129894946Y-136290853D01*
X129667298Y-136631553D01*
X129600183Y-136488642D01*
X129171924Y-136098355D01*
X128761890Y-135928524D01*
X128532000Y-136049845D01*
X128532000Y-137243000D01*
X128552000Y-137243000D01*
X128552000Y-137497000D01*
X128532000Y-137497000D01*
X128532000Y-137517000D01*
X128278000Y-137517000D01*
X128278000Y-137497000D01*
X127084181Y-137497000D01*
X126963514Y-137726892D01*
X127209817Y-138251358D01*
X127638076Y-138641645D01*
X127658248Y-138650000D01*
X116075000Y-138650000D01*
X116075000Y-136182619D01*
X116784613Y-136182619D01*
X117124155Y-137004372D01*
X117752321Y-137633636D01*
X118573481Y-137974611D01*
X119462619Y-137975387D01*
X120284372Y-137635845D01*
X120908197Y-137013108D01*
X126963514Y-137013108D01*
X127084181Y-137243000D01*
X128278000Y-137243000D01*
X128278000Y-136049845D01*
X128048110Y-135928524D01*
X127638076Y-136098355D01*
X127209817Y-136488642D01*
X126963514Y-137013108D01*
X120908197Y-137013108D01*
X120913636Y-137007679D01*
X121254611Y-136186519D01*
X121255387Y-135297381D01*
X120915845Y-134475628D01*
X120287679Y-133846364D01*
X119466519Y-133505389D01*
X118577381Y-133504613D01*
X117755628Y-133844155D01*
X117126364Y-134472321D01*
X116785389Y-135293481D01*
X116784613Y-136182619D01*
X116075000Y-136182619D01*
X116075000Y-126626057D01*
X118935846Y-126626057D01*
X119070903Y-126952920D01*
X119113800Y-126995892D01*
X119113800Y-129678819D01*
X119071782Y-129720764D01*
X118936154Y-130047391D01*
X118935846Y-130401057D01*
X119070903Y-130727920D01*
X119320764Y-130978218D01*
X119647391Y-131113846D01*
X120001057Y-131114154D01*
X120327920Y-130979097D01*
X120578218Y-130729236D01*
X120713846Y-130402609D01*
X120714154Y-130048943D01*
X120579097Y-129722080D01*
X120536200Y-129679108D01*
X120536200Y-126996181D01*
X120578218Y-126954236D01*
X120713846Y-126627609D01*
X120713999Y-126451057D01*
X123585846Y-126451057D01*
X123720903Y-126777920D01*
X123763800Y-126820892D01*
X123763800Y-132498633D01*
X123713800Y-132750000D01*
X123767937Y-133022165D01*
X123922106Y-133252894D01*
X124152835Y-133407063D01*
X124425000Y-133461200D01*
X126503950Y-133461200D01*
X126620764Y-133578218D01*
X126947391Y-133713846D01*
X127301057Y-133714154D01*
X127627920Y-133579097D01*
X127878218Y-133329236D01*
X128013846Y-133002609D01*
X128014154Y-132648943D01*
X127879097Y-132322080D01*
X127629236Y-132071782D01*
X127302609Y-131936154D01*
X126948943Y-131935846D01*
X126699775Y-132038800D01*
X125186200Y-132038800D01*
X125186200Y-126821181D01*
X125228218Y-126779236D01*
X125363846Y-126452609D01*
X125364154Y-126098943D01*
X125229097Y-125772080D01*
X124979236Y-125521782D01*
X124652609Y-125386154D01*
X124298943Y-125385846D01*
X123972080Y-125520903D01*
X123721782Y-125770764D01*
X123586154Y-126097391D01*
X123585846Y-126451057D01*
X120713999Y-126451057D01*
X120714154Y-126273943D01*
X120579097Y-125947080D01*
X120329236Y-125696782D01*
X120002609Y-125561154D01*
X119648943Y-125560846D01*
X119322080Y-125695903D01*
X119071782Y-125945764D01*
X118936154Y-126272391D01*
X118935846Y-126626057D01*
X116075000Y-126626057D01*
X116075000Y-119361350D01*
X116309817Y-119861358D01*
X116738076Y-120251645D01*
X117148110Y-120421476D01*
X117378000Y-120300155D01*
X117378000Y-119107000D01*
X117358000Y-119107000D01*
X117358000Y-118853000D01*
X117378000Y-118853000D01*
X117378000Y-117659845D01*
X117148110Y-117538524D01*
X116738076Y-117708355D01*
X116309817Y-118098642D01*
X116075000Y-118598650D01*
X116075000Y-115551350D01*
X116309817Y-116051358D01*
X116738076Y-116441645D01*
X117148110Y-116611476D01*
X117378000Y-116490155D01*
X117378000Y-115297000D01*
X117358000Y-115297000D01*
X117358000Y-115043000D01*
X117378000Y-115043000D01*
X117378000Y-113849845D01*
X117632000Y-113849845D01*
X117632000Y-115043000D01*
X117652000Y-115043000D01*
X117652000Y-115297000D01*
X117632000Y-115297000D01*
X117632000Y-116490155D01*
X117861890Y-116611476D01*
X118271924Y-116441645D01*
X118700183Y-116051358D01*
X118767298Y-115908447D01*
X118994946Y-116249147D01*
X119476715Y-116571054D01*
X120045000Y-116684093D01*
X120613285Y-116571054D01*
X121095054Y-116249147D01*
X121122850Y-116207548D01*
X121131838Y-116255317D01*
X121270910Y-116471441D01*
X121483110Y-116616431D01*
X121735000Y-116667440D01*
X123435000Y-116667440D01*
X123670317Y-116623162D01*
X123886441Y-116484090D01*
X124031431Y-116271890D01*
X124082440Y-116020000D01*
X124082440Y-114320000D01*
X124038162Y-114084683D01*
X123899090Y-113868559D01*
X123686890Y-113723569D01*
X123435000Y-113672560D01*
X121735000Y-113672560D01*
X121499683Y-113716838D01*
X121283559Y-113855910D01*
X121138569Y-114068110D01*
X121124914Y-114135541D01*
X121095054Y-114090853D01*
X120613285Y-113768946D01*
X120045000Y-113655907D01*
X119476715Y-113768946D01*
X118994946Y-114090853D01*
X118767298Y-114431553D01*
X118700183Y-114288642D01*
X118271924Y-113898355D01*
X117861890Y-113728524D01*
X117632000Y-113849845D01*
X117378000Y-113849845D01*
X117148110Y-113728524D01*
X116738076Y-113898355D01*
X116309817Y-114288642D01*
X116075000Y-114788650D01*
X116075000Y-111741350D01*
X116309817Y-112241358D01*
X116738076Y-112631645D01*
X117148110Y-112801476D01*
X117378000Y-112680155D01*
X117378000Y-111487000D01*
X117358000Y-111487000D01*
X117358000Y-111233000D01*
X117378000Y-111233000D01*
X117378000Y-110039845D01*
X117632000Y-110039845D01*
X117632000Y-111233000D01*
X117652000Y-111233000D01*
X117652000Y-111487000D01*
X117632000Y-111487000D01*
X117632000Y-112680155D01*
X117861890Y-112801476D01*
X118271924Y-112631645D01*
X118700183Y-112241358D01*
X118767298Y-112098447D01*
X118994946Y-112439147D01*
X119476715Y-112761054D01*
X120045000Y-112874093D01*
X120613285Y-112761054D01*
X121095054Y-112439147D01*
X121122850Y-112397548D01*
X121131838Y-112445317D01*
X121270910Y-112661441D01*
X121483110Y-112806431D01*
X121735000Y-112857440D01*
X123435000Y-112857440D01*
X123670317Y-112813162D01*
X123886441Y-112674090D01*
X124031431Y-112461890D01*
X124082440Y-112210000D01*
X124082440Y-110510000D01*
X124038162Y-110274683D01*
X123899090Y-110058559D01*
X123686890Y-109913569D01*
X123435000Y-109862560D01*
X121735000Y-109862560D01*
X121499683Y-109906838D01*
X121283559Y-110045910D01*
X121138569Y-110258110D01*
X121124914Y-110325541D01*
X121095054Y-110280853D01*
X120613285Y-109958946D01*
X120045000Y-109845907D01*
X119476715Y-109958946D01*
X118994946Y-110280853D01*
X118767298Y-110621553D01*
X118700183Y-110478642D01*
X118271924Y-110088355D01*
X117861890Y-109918524D01*
X117632000Y-110039845D01*
X117378000Y-110039845D01*
X117148110Y-109918524D01*
X116738076Y-110088355D01*
X116309817Y-110478642D01*
X116075000Y-110978650D01*
X116075000Y-107931350D01*
X116309817Y-108431358D01*
X116738076Y-108821645D01*
X117148110Y-108991476D01*
X117378000Y-108870155D01*
X117378000Y-107677000D01*
X117358000Y-107677000D01*
X117358000Y-107423000D01*
X117378000Y-107423000D01*
X117378000Y-106229845D01*
X117148110Y-106108524D01*
X116738076Y-106278355D01*
X116309817Y-106668642D01*
X116075000Y-107168650D01*
X116075000Y-104746517D01*
X116708088Y-104746517D01*
X116776077Y-104987460D01*
X117295171Y-105172201D01*
X117845448Y-105144230D01*
X118223923Y-104987460D01*
X118291912Y-104746517D01*
X117500000Y-103954605D01*
X116708088Y-104746517D01*
X116075000Y-104746517D01*
X116075000Y-103570171D01*
X116102799Y-103570171D01*
X116130770Y-104120448D01*
X116287540Y-104498923D01*
X116528483Y-104566912D01*
X117320395Y-103775000D01*
X117679605Y-103775000D01*
X118471517Y-104566912D01*
X118712460Y-104498923D01*
X118776359Y-104319376D01*
X118875169Y-104558515D01*
X119264436Y-104948461D01*
X119773298Y-105159759D01*
X120324285Y-105160240D01*
X120833515Y-104949831D01*
X121223461Y-104560564D01*
X121434759Y-104051702D01*
X121435240Y-103500715D01*
X121224831Y-102991485D01*
X120835564Y-102601539D01*
X120326702Y-102390241D01*
X119775715Y-102389760D01*
X119266485Y-102600169D01*
X118876539Y-102989436D01*
X118781616Y-103218035D01*
X118712460Y-103051077D01*
X118471517Y-102983088D01*
X117679605Y-103775000D01*
X117320395Y-103775000D01*
X116528483Y-102983088D01*
X116287540Y-103051077D01*
X116102799Y-103570171D01*
X116075000Y-103570171D01*
X116075000Y-102803483D01*
X116708088Y-102803483D01*
X117500000Y-103595395D01*
X118291912Y-102803483D01*
X118223923Y-102562540D01*
X117704829Y-102377799D01*
X117154552Y-102405770D01*
X116776077Y-102562540D01*
X116708088Y-102803483D01*
X116075000Y-102803483D01*
X116075000Y-98352619D01*
X116704613Y-98352619D01*
X117044155Y-99174372D01*
X117672321Y-99803636D01*
X118493481Y-100144611D01*
X119382619Y-100145387D01*
X120204372Y-99805845D01*
X120833636Y-99177679D01*
X121174611Y-98356519D01*
X121175387Y-97467381D01*
X120835845Y-96645628D01*
X120207679Y-96016364D01*
X119386519Y-95675389D01*
X118497381Y-95674613D01*
X117675628Y-96014155D01*
X117046364Y-96642321D01*
X116705389Y-97463481D01*
X116704613Y-98352619D01*
X116075000Y-98352619D01*
X116075000Y-95070000D01*
X135626397Y-95070000D01*
X135413076Y-95158355D01*
X135413076Y-95158355D01*
G37*
X135413076Y-95158355D02*
X134984817Y-95548642D01*
X134738514Y-96073108D01*
X134859181Y-96303000D01*
X136053000Y-96303000D01*
X136053000Y-96283000D01*
X136307000Y-96283000D01*
X136307000Y-96303000D01*
X136327000Y-96303000D01*
X136327000Y-96557000D01*
X136307000Y-96557000D01*
X136307000Y-96577000D01*
X136053000Y-96577000D01*
X136053000Y-96557000D01*
X134859181Y-96557000D01*
X134738514Y-96786892D01*
X134984817Y-97311358D01*
X135413076Y-97701645D01*
X135623500Y-97788800D01*
X134811200Y-97788800D01*
X134811200Y-97375000D01*
X134757063Y-97102836D01*
X134757063Y-97102835D01*
X134602894Y-96872106D01*
X134452894Y-96722106D01*
X134222165Y-96567937D01*
X133950000Y-96513800D01*
X133400000Y-96513800D01*
X133182820Y-96557000D01*
X133127835Y-96567937D01*
X132897106Y-96722106D01*
X128080412Y-101538800D01*
X122625000Y-101538800D01*
X122352836Y-101592937D01*
X122122106Y-101747105D01*
X122082106Y-101787106D01*
X121927937Y-102017835D01*
X121874376Y-102287106D01*
X121873800Y-102290000D01*
X121873800Y-106052560D01*
X121735000Y-106052560D01*
X121499683Y-106096838D01*
X121283559Y-106235910D01*
X121138569Y-106448110D01*
X121124914Y-106515541D01*
X121095054Y-106470853D01*
X120613285Y-106148946D01*
X120045000Y-106035907D01*
X119476715Y-106148946D01*
X118994946Y-106470853D01*
X118767298Y-106811553D01*
X118700183Y-106668642D01*
X118271924Y-106278355D01*
X117861890Y-106108524D01*
X117632000Y-106229845D01*
X117632000Y-107423000D01*
X117652000Y-107423000D01*
X117652000Y-107677000D01*
X117632000Y-107677000D01*
X117632000Y-108870155D01*
X117861890Y-108991476D01*
X118271924Y-108821645D01*
X118700183Y-108431358D01*
X118767298Y-108288447D01*
X118994946Y-108629147D01*
X119476715Y-108951054D01*
X120045000Y-109064093D01*
X120613285Y-108951054D01*
X121095054Y-108629147D01*
X121122850Y-108587548D01*
X121131838Y-108635317D01*
X121270910Y-108851441D01*
X121483110Y-108996431D01*
X121735000Y-109047440D01*
X123435000Y-109047440D01*
X123670317Y-109003162D01*
X123886441Y-108864090D01*
X124031431Y-108651890D01*
X124082440Y-108400000D01*
X124082440Y-106700000D01*
X124038162Y-106464683D01*
X123899090Y-106248559D01*
X123686890Y-106103569D01*
X123435000Y-106052560D01*
X123296200Y-106052560D01*
X123296200Y-102961200D01*
X128375000Y-102961200D01*
X128647165Y-102907063D01*
X128877894Y-102752894D01*
X133388800Y-98241988D01*
X133388800Y-98475000D01*
X133442937Y-98747165D01*
X133597106Y-98977894D01*
X133622105Y-99002894D01*
X133776274Y-99105906D01*
X133852836Y-99157063D01*
X134125000Y-99211200D01*
X139730412Y-99211200D01*
X143113800Y-102594589D01*
X143113800Y-111228907D01*
X143021782Y-111320764D01*
X142886154Y-111647391D01*
X142885846Y-112001057D01*
X143020903Y-112327920D01*
X143270764Y-112578218D01*
X143597391Y-112713846D01*
X143951057Y-112714154D01*
X144277920Y-112579097D01*
X144528218Y-112329236D01*
X144663846Y-112002609D01*
X144664154Y-111648943D01*
X144536200Y-111339271D01*
X144536200Y-106401057D01*
X148335846Y-106401057D01*
X148470903Y-106727920D01*
X148720764Y-106978218D01*
X149047391Y-107113846D01*
X149401057Y-107114154D01*
X149727920Y-106979097D01*
X149770892Y-106936200D01*
X150103819Y-106936200D01*
X150145764Y-106978218D01*
X150472391Y-107113846D01*
X150826057Y-107114154D01*
X151152920Y-106979097D01*
X151403218Y-106729236D01*
X151538846Y-106402609D01*
X151539154Y-106048943D01*
X151404097Y-105722080D01*
X151154236Y-105471782D01*
X150827609Y-105336154D01*
X150473943Y-105335846D01*
X150147080Y-105470903D01*
X150104108Y-105513800D01*
X149771181Y-105513800D01*
X149729236Y-105471782D01*
X149402609Y-105336154D01*
X149048943Y-105335846D01*
X148722080Y-105470903D01*
X148471782Y-105720764D01*
X148336154Y-106047391D01*
X148335846Y-106401057D01*
X144536200Y-106401057D01*
X144536200Y-102300000D01*
X144482063Y-102027836D01*
X144448654Y-101977836D01*
X144327895Y-101797106D01*
X141013408Y-98482619D01*
X154374613Y-98482619D01*
X154714155Y-99304372D01*
X155342321Y-99933636D01*
X156163481Y-100274611D01*
X157052619Y-100275387D01*
X157874372Y-99935845D01*
X158503636Y-99307679D01*
X158844611Y-98486519D01*
X158845387Y-97597381D01*
X158505845Y-96775628D01*
X157877679Y-96146364D01*
X157056519Y-95805389D01*
X156167381Y-95804613D01*
X155345628Y-96144155D01*
X154716364Y-96772321D01*
X154375389Y-97593481D01*
X154374613Y-98482619D01*
X141013408Y-98482619D01*
X140527894Y-97997106D01*
X140423632Y-97927440D01*
X142110000Y-97927440D01*
X142345317Y-97883162D01*
X142561441Y-97744090D01*
X142706431Y-97531890D01*
X142757440Y-97280000D01*
X142757440Y-95580000D01*
X142713162Y-95344683D01*
X142574090Y-95128559D01*
X142488386Y-95070000D01*
X159655000Y-95070000D01*
X159655000Y-138650000D01*
X148834486Y-138650000D01*
X148851441Y-138639090D01*
X148996431Y-138426890D01*
X149047440Y-138175000D01*
X149047440Y-136475000D01*
X149003162Y-136239683D01*
X148889225Y-136062619D01*
X154324613Y-136062619D01*
X154664155Y-136884372D01*
X155292321Y-137513636D01*
X156113481Y-137854611D01*
X157002619Y-137855387D01*
X157824372Y-137515845D01*
X158453636Y-136887679D01*
X158794611Y-136066519D01*
X158795387Y-135177381D01*
X158455845Y-134355628D01*
X157827679Y-133726364D01*
X157006519Y-133385389D01*
X156117381Y-133384613D01*
X155295628Y-133724155D01*
X154666364Y-134352321D01*
X154325389Y-135173481D01*
X154324613Y-136062619D01*
X148889225Y-136062619D01*
X148864090Y-136023559D01*
X148651890Y-135878569D01*
X148400000Y-135827560D01*
X146700000Y-135827560D01*
X146464683Y-135871838D01*
X146248559Y-136010910D01*
X146103569Y-136223110D01*
X146089914Y-136290541D01*
X146060054Y-136245853D01*
X145721200Y-136019439D01*
X145721200Y-135700000D01*
X145667063Y-135427836D01*
X145667063Y-135427835D01*
X145512894Y-135197106D01*
X143952894Y-133637106D01*
X143722165Y-133482937D01*
X143450000Y-133428800D01*
X142601988Y-133428800D01*
X143402894Y-132627895D01*
X143557062Y-132397165D01*
X143557063Y-132397164D01*
X143611200Y-132125000D01*
X143611200Y-130094588D01*
X144691686Y-129014102D01*
X144751057Y-129014154D01*
X145077920Y-128879097D01*
X145328218Y-128629236D01*
X145463846Y-128302609D01*
X145464154Y-127948943D01*
X145329097Y-127622080D01*
X145079236Y-127371782D01*
X144752609Y-127236154D01*
X144398943Y-127235846D01*
X144199915Y-127318083D01*
X144002609Y-127236154D01*
X143789748Y-127235969D01*
X143724097Y-127077080D01*
X143681200Y-127034108D01*
X143681200Y-123440000D01*
X143627063Y-123167836D01*
X143627063Y-123167835D01*
X143493260Y-122967585D01*
X143577062Y-122842165D01*
X143577063Y-122842164D01*
X143631200Y-122570000D01*
X143631200Y-121449285D01*
X144264760Y-121449285D01*
X144475169Y-121958515D01*
X144864436Y-122348461D01*
X145373298Y-122559759D01*
X145924285Y-122560240D01*
X146433515Y-122349831D01*
X146823461Y-121960564D01*
X146962581Y-121625526D01*
X147100169Y-121958515D01*
X147489436Y-122348461D01*
X147998298Y-122559759D01*
X148549285Y-122560240D01*
X149058515Y-122349831D01*
X149448461Y-121960564D01*
X149659759Y-121451702D01*
X149660240Y-120900715D01*
X149449831Y-120391485D01*
X149060564Y-120001539D01*
X148551702Y-119790241D01*
X148000715Y-119789760D01*
X147491485Y-120000169D01*
X147101539Y-120389436D01*
X146962419Y-120724474D01*
X146824831Y-120391485D01*
X146435564Y-120001539D01*
X145926702Y-119790241D01*
X145375715Y-119789760D01*
X144866485Y-120000169D01*
X144476539Y-120389436D01*
X144265241Y-120898298D01*
X144264760Y-121449285D01*
X143631200Y-121449285D01*
X143631200Y-119216076D01*
X143733218Y-119114236D01*
X143868846Y-118787609D01*
X143869154Y-118433943D01*
X143734097Y-118107080D01*
X143484236Y-117856782D01*
X143328881Y-117792273D01*
X143244097Y-117587080D01*
X143193306Y-117536200D01*
X143603776Y-117536200D01*
X143620764Y-117553218D01*
X143736064Y-117601095D01*
X143735846Y-117851057D01*
X143870903Y-118177920D01*
X144120764Y-118428218D01*
X144447391Y-118563846D01*
X144801057Y-118564154D01*
X145127920Y-118429097D01*
X145378218Y-118179236D01*
X145513846Y-117852609D01*
X145514154Y-117498943D01*
X145379097Y-117172080D01*
X145361200Y-117154152D01*
X145361200Y-115908428D01*
X145420903Y-116052920D01*
X145670764Y-116303218D01*
X145997391Y-116438846D01*
X146351057Y-116439154D01*
X146677920Y-116304097D01*
X146928218Y-116054236D01*
X147063846Y-115727609D01*
X147063853Y-115719641D01*
X147197106Y-115852894D01*
X147427835Y-116007063D01*
X147700000Y-116061200D01*
X150211077Y-116061200D01*
X150210846Y-116326057D01*
X150345903Y-116652920D01*
X150595764Y-116903218D01*
X150922391Y-117038846D01*
X151276057Y-117039154D01*
X151585729Y-116911200D01*
X157128819Y-116911200D01*
X157170764Y-116953218D01*
X157497391Y-117088846D01*
X157851057Y-117089154D01*
X158177920Y-116954097D01*
X158428218Y-116704236D01*
X158538394Y-116438903D01*
X158826057Y-116439154D01*
X159152920Y-116304097D01*
X159403218Y-116054236D01*
X159538846Y-115727609D01*
X159539154Y-115373943D01*
X159404097Y-115047080D01*
X159154236Y-114796782D01*
X158827609Y-114661154D01*
X158561215Y-114660922D01*
X158450000Y-114638800D01*
X149018314Y-114638800D01*
X149213218Y-114444236D01*
X149348846Y-114117609D01*
X149349154Y-113763943D01*
X149214097Y-113437080D01*
X149171200Y-113394108D01*
X149171200Y-112176057D01*
X150235846Y-112176057D01*
X150370903Y-112502920D01*
X150620764Y-112753218D01*
X150947391Y-112888846D01*
X151301057Y-112889154D01*
X151627920Y-112754097D01*
X151670892Y-112711200D01*
X152003819Y-112711200D01*
X152045764Y-112753218D01*
X152372391Y-112888846D01*
X152726057Y-112889154D01*
X153052920Y-112754097D01*
X153303218Y-112504236D01*
X153438846Y-112177609D01*
X153439154Y-111823943D01*
X153304097Y-111497080D01*
X153054236Y-111246782D01*
X152727609Y-111111154D01*
X152373943Y-111110846D01*
X152047080Y-111245903D01*
X152004108Y-111288800D01*
X151671181Y-111288800D01*
X151629236Y-111246782D01*
X151302609Y-111111154D01*
X150948943Y-111110846D01*
X150622080Y-111245903D01*
X150371782Y-111495764D01*
X150236154Y-111822391D01*
X150235846Y-112176057D01*
X149171200Y-112176057D01*
X149171200Y-110291200D01*
X151590000Y-110291200D01*
X151862165Y-110237063D01*
X152092894Y-110082894D01*
X152876817Y-109298972D01*
X153086057Y-109299154D01*
X153412920Y-109164097D01*
X153663218Y-108914236D01*
X153798846Y-108587609D01*
X153799154Y-108233943D01*
X153664097Y-107907080D01*
X153414236Y-107656782D01*
X153211896Y-107572763D01*
X153164097Y-107457080D01*
X153137236Y-107430172D01*
X153163218Y-107404236D01*
X153298846Y-107077609D01*
X153299154Y-106723943D01*
X153164097Y-106397080D01*
X152914236Y-106146782D01*
X152587609Y-106011154D01*
X152233943Y-106010846D01*
X151907080Y-106145903D01*
X151656782Y-106395764D01*
X151521154Y-106722391D01*
X151520846Y-107076057D01*
X151655903Y-107402920D01*
X151682764Y-107429828D01*
X151656782Y-107455764D01*
X151521154Y-107782391D01*
X151520846Y-108136057D01*
X151655903Y-108462920D01*
X151678577Y-108485634D01*
X151295412Y-108868800D01*
X148430000Y-108868800D01*
X148157835Y-108922937D01*
X147927106Y-109077106D01*
X147772937Y-109307835D01*
X147718800Y-109580000D01*
X147748800Y-109730820D01*
X147748800Y-113010977D01*
X147598943Y-113010846D01*
X147272080Y-113145903D01*
X147021782Y-113395764D01*
X146886154Y-113722391D01*
X146886101Y-113783111D01*
X146008358Y-114660854D01*
X145998943Y-114660846D01*
X145672080Y-114795903D01*
X145503949Y-114963740D01*
X145404097Y-114722080D01*
X145154236Y-114471782D01*
X144827609Y-114336154D01*
X144473943Y-114335846D01*
X144147080Y-114470903D01*
X143896782Y-114720764D01*
X143761154Y-115047391D01*
X143760846Y-115401057D01*
X143895903Y-115727920D01*
X143938800Y-115770892D01*
X143938800Y-115915037D01*
X143622080Y-116045903D01*
X143554064Y-116113800D01*
X142746181Y-116113800D01*
X142704236Y-116071782D01*
X142377609Y-115936154D01*
X142023943Y-115935846D01*
X141922862Y-115977612D01*
X141702609Y-115886154D01*
X141348943Y-115885846D01*
X141022080Y-116020903D01*
X140771782Y-116270764D01*
X140636154Y-116597391D01*
X140635846Y-116951057D01*
X140744409Y-117213800D01*
X127821181Y-117213800D01*
X127779236Y-117171782D01*
X127452609Y-117036154D01*
X127451200Y-117036153D01*
X127451200Y-113774588D01*
X128422894Y-112802894D01*
X128577063Y-112572165D01*
X128631200Y-112300000D01*
X128631200Y-110976057D01*
X129000846Y-110976057D01*
X129135903Y-111302920D01*
X129385764Y-111553218D01*
X129712391Y-111688846D01*
X130066057Y-111689154D01*
X130392920Y-111554097D01*
X130643218Y-111304236D01*
X130778846Y-110977609D01*
X130779154Y-110623943D01*
X130644097Y-110297080D01*
X130601200Y-110254108D01*
X130601200Y-104919666D01*
X130647391Y-104938846D01*
X131001057Y-104939154D01*
X131327920Y-104804097D01*
X131345848Y-104786200D01*
X133553819Y-104786200D01*
X133595764Y-104828218D01*
X133922391Y-104963846D01*
X134276057Y-104964154D01*
X134602920Y-104829097D01*
X134853218Y-104579236D01*
X134988846Y-104252609D01*
X134989154Y-103898943D01*
X134854097Y-103572080D01*
X134604236Y-103321782D01*
X134277609Y-103186154D01*
X133923943Y-103185846D01*
X133597080Y-103320903D01*
X133554108Y-103363800D01*
X131411988Y-103363800D01*
X131482894Y-103292894D01*
X131637063Y-103062165D01*
X131691200Y-102790000D01*
X131691200Y-102244588D01*
X133266687Y-100669102D01*
X133326057Y-100669154D01*
X133652920Y-100534097D01*
X133903218Y-100284236D01*
X134038846Y-99957609D01*
X134039154Y-99603943D01*
X133904097Y-99277080D01*
X133654236Y-99026782D01*
X133327609Y-98891154D01*
X132973943Y-98890846D01*
X132647080Y-99025903D01*
X132396782Y-99275764D01*
X132261154Y-99602391D01*
X132261101Y-99663110D01*
X130477106Y-101447106D01*
X130322937Y-101677835D01*
X130322937Y-101677836D01*
X130268800Y-101950000D01*
X130268800Y-102495412D01*
X129387106Y-103377106D01*
X129232937Y-103607835D01*
X129232937Y-103607836D01*
X129178800Y-103880000D01*
X129178800Y-110253819D01*
X129136782Y-110295764D01*
X129001154Y-110622391D01*
X129000846Y-110976057D01*
X128631200Y-110976057D01*
X128631200Y-109136181D01*
X128673218Y-109094236D01*
X128808846Y-108767609D01*
X128809154Y-108413943D01*
X128674097Y-108087080D01*
X128424236Y-107836782D01*
X128097609Y-107701154D01*
X127743943Y-107700846D01*
X127417559Y-107835705D01*
X127117609Y-107711154D01*
X126763943Y-107710846D01*
X126612635Y-107773365D01*
X126402609Y-107686154D01*
X126048943Y-107685846D01*
X125722080Y-107820903D01*
X125471782Y-108070764D01*
X125336154Y-108397391D01*
X125335846Y-108751057D01*
X125470903Y-109077920D01*
X125513800Y-109120892D01*
X125513800Y-119228994D01*
X125371782Y-119370764D01*
X125236154Y-119697391D01*
X125235846Y-120051057D01*
X125309083Y-120228305D01*
X125097080Y-120315903D01*
X125011811Y-120401023D01*
X124082440Y-119471652D01*
X124082440Y-118130000D01*
X124038162Y-117894683D01*
X123899090Y-117678559D01*
X123686890Y-117533569D01*
X123435000Y-117482560D01*
X121735000Y-117482560D01*
X121499683Y-117526838D01*
X121283559Y-117665910D01*
X121138569Y-117878110D01*
X121124914Y-117945541D01*
X121095054Y-117900853D01*
X120613285Y-117578946D01*
X120045000Y-117465907D01*
X119476715Y-117578946D01*
X118994946Y-117900853D01*
X118767298Y-118241553D01*
X118700183Y-118098642D01*
X118271924Y-117708355D01*
X117861890Y-117538524D01*
X117632000Y-117659845D01*
X117632000Y-118853000D01*
X117652000Y-118853000D01*
X117652000Y-119107000D01*
X117632000Y-119107000D01*
X117632000Y-120300155D01*
X117861890Y-120421476D01*
X118271924Y-120251645D01*
X118700183Y-119861358D01*
X118767298Y-119718447D01*
X118994946Y-120059147D01*
X119476715Y-120381054D01*
X120045000Y-120494093D01*
X120613285Y-120381054D01*
X121095054Y-120059147D01*
X121122850Y-120017548D01*
X121131838Y-120065317D01*
X121270910Y-120281441D01*
X121483110Y-120426431D01*
X121735000Y-120477440D01*
X123076652Y-120477440D01*
X124875895Y-122276684D01*
X124856782Y-122295764D01*
X124721154Y-122622391D01*
X124720846Y-122976057D01*
X124855903Y-123302920D01*
X124898800Y-123345892D01*
X124898800Y-124340000D01*
X124952937Y-124612165D01*
X125107106Y-124842894D01*
X126268800Y-126004589D01*
X126268800Y-130100000D01*
X126322937Y-130372165D01*
X126477106Y-130602894D01*
X126937105Y-131062894D01*
X127167835Y-131217063D01*
X127212990Y-131226045D01*
X127440000Y-131271200D01*
X133298800Y-131271200D01*
X133298800Y-131427103D01*
X132987080Y-131555903D01*
X132736782Y-131805764D01*
X132601154Y-132132391D01*
X132600846Y-132486057D01*
X132735903Y-132812920D01*
X132768800Y-132845875D01*
X132768800Y-133563819D01*
X132726782Y-133605764D01*
X132591154Y-133932391D01*
X132590846Y-134286057D01*
X132725903Y-134612920D01*
X132975764Y-134863218D01*
X133302391Y-134998846D01*
X133656057Y-134999154D01*
X133982920Y-134864097D01*
X134023115Y-134823972D01*
X134160000Y-134851200D01*
X143155412Y-134851200D01*
X144298800Y-135994588D01*
X144298800Y-136019439D01*
X143959946Y-136245853D01*
X143732298Y-136586553D01*
X143665183Y-136443642D01*
X143236924Y-136053355D01*
X142826890Y-135883524D01*
X142597000Y-136004845D01*
X142597000Y-137198000D01*
X142617000Y-137198000D01*
X142617000Y-137452000D01*
X142597000Y-137452000D01*
X142597000Y-137472000D01*
X142343000Y-137472000D01*
X142343000Y-137452000D01*
X142323000Y-137452000D01*
X142323000Y-137198000D01*
X142343000Y-137198000D01*
X142343000Y-136004845D01*
X142113110Y-135883524D01*
X141703076Y-136053355D01*
X141274817Y-136443642D01*
X141207702Y-136586553D01*
X140980054Y-136245853D01*
X140498285Y-135923946D01*
X139930000Y-135810907D01*
X139361715Y-135923946D01*
X138879946Y-136245853D01*
X138660000Y-136575026D01*
X138440054Y-136245853D01*
X137958285Y-135923946D01*
X137390000Y-135810907D01*
X136821715Y-135923946D01*
X136339946Y-136245853D01*
X136018039Y-136727622D01*
X135905000Y-137295907D01*
X135905000Y-137354093D01*
X136018039Y-137922378D01*
X136339946Y-138404147D01*
X136707892Y-138650000D01*
X134809734Y-138650000D01*
X134931431Y-138471890D01*
X134982440Y-138220000D01*
X134982440Y-136520000D01*
X134938162Y-136284683D01*
X134799090Y-136068559D01*
X134586890Y-135923569D01*
X134335000Y-135872560D01*
X132635000Y-135872560D01*
X132399683Y-135916838D01*
X132183559Y-136055910D01*
X132038569Y-136268110D01*
X132024914Y-136335541D01*
X131995054Y-136290853D01*
X131513285Y-135968946D01*
X130945000Y-135855907D01*
X130376715Y-135968946D01*
X129894946Y-136290853D01*
X129667298Y-136631553D01*
X129600183Y-136488642D01*
X129171924Y-136098355D01*
X128761890Y-135928524D01*
X128532000Y-136049845D01*
X128532000Y-137243000D01*
X128552000Y-137243000D01*
X128552000Y-137497000D01*
X128532000Y-137497000D01*
X128532000Y-137517000D01*
X128278000Y-137517000D01*
X128278000Y-137497000D01*
X127084181Y-137497000D01*
X126963514Y-137726892D01*
X127209817Y-138251358D01*
X127638076Y-138641645D01*
X127658248Y-138650000D01*
X116075000Y-138650000D01*
X116075000Y-136182619D01*
X116784613Y-136182619D01*
X117124155Y-137004372D01*
X117752321Y-137633636D01*
X118573481Y-137974611D01*
X119462619Y-137975387D01*
X120284372Y-137635845D01*
X120908197Y-137013108D01*
X126963514Y-137013108D01*
X127084181Y-137243000D01*
X128278000Y-137243000D01*
X128278000Y-136049845D01*
X128048110Y-135928524D01*
X127638076Y-136098355D01*
X127209817Y-136488642D01*
X126963514Y-137013108D01*
X120908197Y-137013108D01*
X120913636Y-137007679D01*
X121254611Y-136186519D01*
X121255387Y-135297381D01*
X120915845Y-134475628D01*
X120287679Y-133846364D01*
X119466519Y-133505389D01*
X118577381Y-133504613D01*
X117755628Y-133844155D01*
X117126364Y-134472321D01*
X116785389Y-135293481D01*
X116784613Y-136182619D01*
X116075000Y-136182619D01*
X116075000Y-126626057D01*
X118935846Y-126626057D01*
X119070903Y-126952920D01*
X119113800Y-126995892D01*
X119113800Y-129678819D01*
X119071782Y-129720764D01*
X118936154Y-130047391D01*
X118935846Y-130401057D01*
X119070903Y-130727920D01*
X119320764Y-130978218D01*
X119647391Y-131113846D01*
X120001057Y-131114154D01*
X120327920Y-130979097D01*
X120578218Y-130729236D01*
X120713846Y-130402609D01*
X120714154Y-130048943D01*
X120579097Y-129722080D01*
X120536200Y-129679108D01*
X120536200Y-126996181D01*
X120578218Y-126954236D01*
X120713846Y-126627609D01*
X120713999Y-126451057D01*
X123585846Y-126451057D01*
X123720903Y-126777920D01*
X123763800Y-126820892D01*
X123763800Y-132498633D01*
X123713800Y-132750000D01*
X123767937Y-133022165D01*
X123922106Y-133252894D01*
X124152835Y-133407063D01*
X124425000Y-133461200D01*
X126503950Y-133461200D01*
X126620764Y-133578218D01*
X126947391Y-133713846D01*
X127301057Y-133714154D01*
X127627920Y-133579097D01*
X127878218Y-133329236D01*
X128013846Y-133002609D01*
X128014154Y-132648943D01*
X127879097Y-132322080D01*
X127629236Y-132071782D01*
X127302609Y-131936154D01*
X126948943Y-131935846D01*
X126699775Y-132038800D01*
X125186200Y-132038800D01*
X125186200Y-126821181D01*
X125228218Y-126779236D01*
X125363846Y-126452609D01*
X125364154Y-126098943D01*
X125229097Y-125772080D01*
X124979236Y-125521782D01*
X124652609Y-125386154D01*
X124298943Y-125385846D01*
X123972080Y-125520903D01*
X123721782Y-125770764D01*
X123586154Y-126097391D01*
X123585846Y-126451057D01*
X120713999Y-126451057D01*
X120714154Y-126273943D01*
X120579097Y-125947080D01*
X120329236Y-125696782D01*
X120002609Y-125561154D01*
X119648943Y-125560846D01*
X119322080Y-125695903D01*
X119071782Y-125945764D01*
X118936154Y-126272391D01*
X118935846Y-126626057D01*
X116075000Y-126626057D01*
X116075000Y-119361350D01*
X116309817Y-119861358D01*
X116738076Y-120251645D01*
X117148110Y-120421476D01*
X117378000Y-120300155D01*
X117378000Y-119107000D01*
X117358000Y-119107000D01*
X117358000Y-118853000D01*
X117378000Y-118853000D01*
X117378000Y-117659845D01*
X117148110Y-117538524D01*
X116738076Y-117708355D01*
X116309817Y-118098642D01*
X116075000Y-118598650D01*
X116075000Y-115551350D01*
X116309817Y-116051358D01*
X116738076Y-116441645D01*
X117148110Y-116611476D01*
X117378000Y-116490155D01*
X117378000Y-115297000D01*
X117358000Y-115297000D01*
X117358000Y-115043000D01*
X117378000Y-115043000D01*
X117378000Y-113849845D01*
X117632000Y-113849845D01*
X117632000Y-115043000D01*
X117652000Y-115043000D01*
X117652000Y-115297000D01*
X117632000Y-115297000D01*
X117632000Y-116490155D01*
X117861890Y-116611476D01*
X118271924Y-116441645D01*
X118700183Y-116051358D01*
X118767298Y-115908447D01*
X118994946Y-116249147D01*
X119476715Y-116571054D01*
X120045000Y-116684093D01*
X120613285Y-116571054D01*
X121095054Y-116249147D01*
X121122850Y-116207548D01*
X121131838Y-116255317D01*
X121270910Y-116471441D01*
X121483110Y-116616431D01*
X121735000Y-116667440D01*
X123435000Y-116667440D01*
X123670317Y-116623162D01*
X123886441Y-116484090D01*
X124031431Y-116271890D01*
X124082440Y-116020000D01*
X124082440Y-114320000D01*
X124038162Y-114084683D01*
X123899090Y-113868559D01*
X123686890Y-113723569D01*
X123435000Y-113672560D01*
X121735000Y-113672560D01*
X121499683Y-113716838D01*
X121283559Y-113855910D01*
X121138569Y-114068110D01*
X121124914Y-114135541D01*
X121095054Y-114090853D01*
X120613285Y-113768946D01*
X120045000Y-113655907D01*
X119476715Y-113768946D01*
X118994946Y-114090853D01*
X118767298Y-114431553D01*
X118700183Y-114288642D01*
X118271924Y-113898355D01*
X117861890Y-113728524D01*
X117632000Y-113849845D01*
X117378000Y-113849845D01*
X117148110Y-113728524D01*
X116738076Y-113898355D01*
X116309817Y-114288642D01*
X116075000Y-114788650D01*
X116075000Y-111741350D01*
X116309817Y-112241358D01*
X116738076Y-112631645D01*
X117148110Y-112801476D01*
X117378000Y-112680155D01*
X117378000Y-111487000D01*
X117358000Y-111487000D01*
X117358000Y-111233000D01*
X117378000Y-111233000D01*
X117378000Y-110039845D01*
X117632000Y-110039845D01*
X117632000Y-111233000D01*
X117652000Y-111233000D01*
X117652000Y-111487000D01*
X117632000Y-111487000D01*
X117632000Y-112680155D01*
X117861890Y-112801476D01*
X118271924Y-112631645D01*
X118700183Y-112241358D01*
X118767298Y-112098447D01*
X118994946Y-112439147D01*
X119476715Y-112761054D01*
X120045000Y-112874093D01*
X120613285Y-112761054D01*
X121095054Y-112439147D01*
X121122850Y-112397548D01*
X121131838Y-112445317D01*
X121270910Y-112661441D01*
X121483110Y-112806431D01*
X121735000Y-112857440D01*
X123435000Y-112857440D01*
X123670317Y-112813162D01*
X123886441Y-112674090D01*
X124031431Y-112461890D01*
X124082440Y-112210000D01*
X124082440Y-110510000D01*
X124038162Y-110274683D01*
X123899090Y-110058559D01*
X123686890Y-109913569D01*
X123435000Y-109862560D01*
X121735000Y-109862560D01*
X121499683Y-109906838D01*
X121283559Y-110045910D01*
X121138569Y-110258110D01*
X121124914Y-110325541D01*
X121095054Y-110280853D01*
X120613285Y-109958946D01*
X120045000Y-109845907D01*
X119476715Y-109958946D01*
X118994946Y-110280853D01*
X118767298Y-110621553D01*
X118700183Y-110478642D01*
X118271924Y-110088355D01*
X117861890Y-109918524D01*
X117632000Y-110039845D01*
X117378000Y-110039845D01*
X117148110Y-109918524D01*
X116738076Y-110088355D01*
X116309817Y-110478642D01*
X116075000Y-110978650D01*
X116075000Y-107931350D01*
X116309817Y-108431358D01*
X116738076Y-108821645D01*
X117148110Y-108991476D01*
X117378000Y-108870155D01*
X117378000Y-107677000D01*
X117358000Y-107677000D01*
X117358000Y-107423000D01*
X117378000Y-107423000D01*
X117378000Y-106229845D01*
X117148110Y-106108524D01*
X116738076Y-106278355D01*
X116309817Y-106668642D01*
X116075000Y-107168650D01*
X116075000Y-104746517D01*
X116708088Y-104746517D01*
X116776077Y-104987460D01*
X117295171Y-105172201D01*
X117845448Y-105144230D01*
X118223923Y-104987460D01*
X118291912Y-104746517D01*
X117500000Y-103954605D01*
X116708088Y-104746517D01*
X116075000Y-104746517D01*
X116075000Y-103570171D01*
X116102799Y-103570171D01*
X116130770Y-104120448D01*
X116287540Y-104498923D01*
X116528483Y-104566912D01*
X117320395Y-103775000D01*
X117679605Y-103775000D01*
X118471517Y-104566912D01*
X118712460Y-104498923D01*
X118776359Y-104319376D01*
X118875169Y-104558515D01*
X119264436Y-104948461D01*
X119773298Y-105159759D01*
X120324285Y-105160240D01*
X120833515Y-104949831D01*
X121223461Y-104560564D01*
X121434759Y-104051702D01*
X121435240Y-103500715D01*
X121224831Y-102991485D01*
X120835564Y-102601539D01*
X120326702Y-102390241D01*
X119775715Y-102389760D01*
X119266485Y-102600169D01*
X118876539Y-102989436D01*
X118781616Y-103218035D01*
X118712460Y-103051077D01*
X118471517Y-102983088D01*
X117679605Y-103775000D01*
X117320395Y-103775000D01*
X116528483Y-102983088D01*
X116287540Y-103051077D01*
X116102799Y-103570171D01*
X116075000Y-103570171D01*
X116075000Y-102803483D01*
X116708088Y-102803483D01*
X117500000Y-103595395D01*
X118291912Y-102803483D01*
X118223923Y-102562540D01*
X117704829Y-102377799D01*
X117154552Y-102405770D01*
X116776077Y-102562540D01*
X116708088Y-102803483D01*
X116075000Y-102803483D01*
X116075000Y-98352619D01*
X116704613Y-98352619D01*
X117044155Y-99174372D01*
X117672321Y-99803636D01*
X118493481Y-100144611D01*
X119382619Y-100145387D01*
X120204372Y-99805845D01*
X120833636Y-99177679D01*
X121174611Y-98356519D01*
X121175387Y-97467381D01*
X120835845Y-96645628D01*
X120207679Y-96016364D01*
X119386519Y-95675389D01*
X118497381Y-95674613D01*
X117675628Y-96014155D01*
X117046364Y-96642321D01*
X116705389Y-97463481D01*
X116704613Y-98352619D01*
X116075000Y-98352619D01*
X116075000Y-95070000D01*
X135626397Y-95070000D01*
X135413076Y-95158355D01*
M02*
