M48
;DRILL file {KiCad 4.0.7} date 12/16/19 01:30:28
;FORMAT={-:-/ absolute / inch / decimal}
FMAT,2
INCH,TZ
T1C0.010
T2C0.031
T3C0.039
%
G90
G05
M72
T1
X4.7175Y-4.9783
X4.7175Y-5.127
X4.9006Y-4.9715
X4.9449Y-4.7665
X4.9453Y-4.8346
X4.9656Y-4.7195
X4.9695Y-4.2746
X4.9913Y-4.3614
X4.9976Y-4.2756
X5.0049Y-5.2293
X5.0108Y-4.6427
X5.0362Y-4.2752
X5.0581Y-4.4213
X5.0709Y-4.1043
X5.1114Y-4.663
X5.1118Y-4.5941
X5.1138Y-4.3622
X5.1146Y-4.4606
X5.1506Y-4.0965
X5.1663Y-5.0531
X5.2138Y-5.0642
X5.215Y-5.0244
X5.2421Y-3.9283
X5.2551Y-5.2799
X5.2555Y-5.0252
X5.2555Y-5.2091
X5.2598Y-3.8573
X5.2766Y-3.9242
X5.2795Y-4.0974
X5.3622Y-5.2579
X5.3632Y-5.2303
X5.4335Y-4.663
X5.4528Y-5.2313
X5.5719Y-4.5974
X5.5984Y-4.5994
X5.6098Y-4.6492
X5.6287Y-5.0228
X5.6287Y-5.0646
X5.6291Y-4.6697
X5.6398Y-4.8406
X5.6486Y-4.6506
X5.6604Y-4.4026
X5.6624Y-5.0443
X5.6742Y-4.5984
X5.6919Y-5.0443
X5.6939Y-4.6329
X5.6949Y-4.5364
X5.7549Y-4.5492
X5.7618Y-4.4154
X5.7972Y-4.3524
X5.8179Y-4.4843
X5.8449Y-4.4858
X5.875Y-4.1821
X5.9311Y-4.1821
X5.9311Y-4.3878
X5.9488Y-4.5728
X5.9498Y-4.4094
X6.0004Y-4.2087
X6.0004Y-4.2504
X6.0059Y-4.4094
X6.0201Y-4.2681
X6.0276Y-4.3858
X6.2077Y-4.5748
X6.2354Y-4.3878
X6.2461Y-4.5492
T2
X4.626Y-4.0856
X4.7264Y-4.0856
X5.0394Y-4.8278
X5.7343Y-4.7707
X5.8376Y-4.7707
T3
X4.6262Y-4.2343
X4.6262Y-4.3843
X4.6262Y-4.5343
X4.6262Y-4.6843
X4.7262Y-4.2343
X4.7262Y-4.3843
X4.7262Y-4.5343
X4.7262Y-4.6843
X4.8262Y-4.2343
X4.8262Y-4.3843
X4.8262Y-4.5343
X4.8262Y-4.6843
X5.0553Y-5.4083
X5.1553Y-5.4083
X5.2553Y-5.4083
X5.3614Y-3.7965
X5.4091Y-5.4065
X5.4614Y-3.7965
X5.5091Y-5.4065
X5.5614Y-3.7965
X5.6091Y-5.4065
X5.7091Y-5.4065
X5.8091Y-5.4065
T0
M30
